<?xml version="1.0" encoding="UTF-8"?>
<svg width="45px" height="45px" viewBox="0 0 45 45" version="1.1" xmlns="http://www.w3.org/2000/svg" xmlns:xlink="http://www.w3.org/1999/xlink">
    <!-- Generator: Sketch 46.2 (44496) - http://www.bohemiancoding.com/sketch -->
    <title>duio</title>
    <desc>Created with Sketch.</desc>
    <defs>
        <path d="M22.5,45 C10.0735931,45 0,34.9264069 0,22.5 C0,10.0735931 10.0735931,0 22.5,0 C34.9264069,0 45,10.0735931 45,22.5 C45,34.9264069 34.9264069,45 22.5,45 Z M3.77031135,32.7984616 C4.37443246,33.8550035 4.84923259,34.6087744 5.19471177,35.0597742 C6.13248703,36.2839767 6.99379797,37.2860946 7.01090925,37.24599 C7.87840033,35.2128078 9.81358244,30.6772246 12.8164557,23.6392405 L3.77031135,32.7984616 Z M7.45670914,37.7081626 C8.46620953,38.6949591 9.51023241,39.5512266 10.5887778,40.2769651 C11.6673232,41.0027034 12.8174211,41.6384451 14.0390715,42.1841899 C14.1642487,41.7070676 14.2405063,41.4094223 14.2405063,41.3924051 C14.335443,41.2974684 14.2405063,41.2025316 14.2405063,41.2025316 L13.7658228,40.8227848 C13.6708861,40.8227848 13.6708861,40.6329114 13.6708861,40.5379747 L15.8544304,33.0379747 C15.8544304,33.0379747 15.7594937,32.943038 15.7594937,32.943038 C15.664557,32.8481013 15.4746835,32.6582278 15.3797468,32.4683544 C15.0949367,32.0886076 14.8101266,31.5189873 14.4303797,30.7594937 C13.7658228,29.4303797 13.2911392,27.721519 13.1012658,25.2531646 C13.1012658,25.1582278 13.0063291,24.8734177 13.0063291,24.6835443 C10.1474288,31.3932083 8.29755552,35.7347477 7.45670914,37.7081626 Z M31.1391566,19.7497411 L31.1391566,21.7408642 C31.2867372,21.8504529 31.3920105,21.9417622 31.4549766,22.0147922 C31.5179426,22.0878221 31.6033397,22.2184214 31.7111679,22.4065902 L31.7111679,19.7497411 L31.1391566,19.7497411 Z M31.1462221,24.9761024 L31.1462221,31.4853309 C31.2629506,31.4677171 31.3852809,31.4303718 31.513213,31.3732952 C31.6411451,31.3162187 31.7393011,31.2599824 31.807681,31.2045868 L31.8183347,24.9761024 L31.1462221,24.9761024 Z M29.8092081,25.34879 L29.8092081,31.5790343 C29.9363747,31.6010989 30.0315734,31.6121517 30.0948041,31.6121928 C30.1580348,31.612234 30.2532334,31.6013052 30.3804001,31.5794063 L30.3804001,25.1880774 C30.2651374,25.2333821 30.1744774,25.2653276 30.1084201,25.2839137 C30.0423628,25.3024998 29.9426255,25.3241253 29.8092081,25.34879 Z M28.3916741,25.8243028 L28.3916741,31.1868824 C28.5155357,31.2590441 28.6108325,31.3082747 28.6775646,31.3345745 C28.7442966,31.3608742 28.8395934,31.3867584 28.963455,31.4122267 L28.963455,25.443584 C28.8210504,25.4299085 28.7127401,25.4438931 28.6385239,25.4855376 C28.5574152,25.5884297 28.4751319,25.7013515 28.3916741,25.8243028 Z M29.8163997,21.6519866 L30.3764627,21.6519866 L30.3764627,19.7504199 L29.8163997,19.7507223 L29.8163997,21.6519866 Z M28.3919037,22.2150655 L29.0533979,21.9291527 L29.0533979,19.7503036 L28.3919037,19.7486283 L28.3919037,22.2150655 Z M18.9873418,22.5949367 L16.8987342,20.8860759 C16.7088608,20.9810127 16.4240506,21.0759494 16.2341772,21.1708861 C16.0443038,21.2658228 15.9493671,21.3607595 15.7594937,21.4556962 C15.8544304,21.4556962 15.9493671,21.4556962 16.0443038,21.4556962 C16.6139241,21.4556962 17.1835443,21.6455696 17.5632911,22.0253165 C18.3227848,22.7848101 19.0822785,23.9240506 19.2721519,24.2088608 L22.6898734,26.4873418 L24.3037975,25.2531646 C24.4936709,24.5886076 24.6835443,24.0189873 24.778481,23.3544304 C24.6835443,22.9746835 24.3987342,22.5949367 24.1139241,22.2151899 C23.8291139,21.835443 23.4493671,21.5506329 23.2594937,21.4556962 C22.9746835,21.3607595 22.6898734,21.2658228 22.3101266,21.1708861 L22.9746835,21.9303797 C23.0696203,22.0253165 23.0696203,22.1202532 23.0696203,22.2151899 C22.9746835,22.3101266 22.8797468,22.4050633 22.7848101,22.4050633 L19.1772152,22.6898734 C19.0822785,22.6898734 19.0822785,22.5949367 18.9873418,22.5949367 Z M17.0886076,22.4050633 C16.8037975,22.1202532 16.4240506,22.0253165 15.9493671,22.0253165 C15.6030744,22.0253165 14.9671459,22.1963667 14.6069435,22.570446 C14.3298795,22.8581841 14.1194965,23.3706493 13.9744773,23.7844884 C13.9339488,23.9001442 13.8799041,24.1335411 13.8998531,24.3977811 C13.9192537,24.6547589 14.0304312,24.9583795 14.1087306,25.1010012 C14.338256,25.5190797 14.6639672,25.8664988 14.7151899,25.9177215 C15.0949367,26.3924051 15.664557,26.6772152 15.9493671,26.8670886 C17.4683544,27.6265823 19.4620253,28.5759494 21.0759494,29.2405063 C22.2151899,29.7151899 23.164557,30.0949367 23.6392405,30.2848101 C23.7341772,30.3797468 23.8291139,30.2848101 23.8291139,30.2848101 C23.9240506,30.2848101 24.0189873,30.1898734 24.1139241,30.0949367 C24.3987342,29.9050633 24.8734177,29.4303797 25.3481013,28.9556962 C25.8227848,28.4810127 26.5822785,27.4367089 27.2468354,26.5822785 C27.9113924,25.7278481 28.3860759,24.9683544 28.3860759,24.9683544 C28.3860759,24.9683544 28.4810127,24.8734177 28.5759494,24.8734177 C28.5759494,24.8734177 28.9556962,24.8734177 29.2405063,24.8734177 C29.2405063,24.8734177 29.335443,24.8734177 29.335443,24.8734177 C29.335443,24.8734177 29.4303797,24.8734177 29.5253165,24.8734177 C29.6202532,24.8734177 29.9050633,24.8734177 30.0949367,24.778481 C30.5696203,24.6835443 30.9493671,24.5886076 30.9493671,24.5886076 L31.0443038,24.5886076 L31.3291139,24.5886076 C31.4240506,24.5886076 31.5189873,24.5886076 31.6139241,24.5886076 C31.7088608,24.4936709 31.8037975,24.4936709 31.8037975,24.3037975 C31.8037975,24.1139241 31.6139241,24.1139241 31.5189873,24.1139241 C31.3291139,24.1139241 31.2341772,24.0189873 31.2341772,23.8291139 C31.2341772,23.8291139 31.2341772,23.2594937 31.2341772,22.8797468 C31.2341772,22.6898734 31.1392405,22.5949367 31.0443038,22.5 C30.9493671,22.5 30.664557,22.4050633 30.3797468,22.4050633 C30.2848101,22.4050633 30.2848101,22.4050633 30.1898734,22.4050633 C29.5253165,22.4050633 28.5759494,22.9746835 28.2911392,23.164557 C28.1962025,23.164557 28.0063291,23.3544304 27.9113924,23.4493671 C27.721519,23.5443038 27.6265823,23.6392405 27.6265823,23.6392405 L22.9746835,27.1518987 C22.8797468,27.2468354 22.6898734,27.2468354 22.5949367,27.1518987 L18.8924051,24.6835443 C18.8924051,24.6835443 18.7974684,24.5886076 18.7974684,24.5886076 C18.7974684,24.5886076 18.5126582,24.3037975 18.2278481,23.8291139 C17.943038,23.3544304 17.4683544,22.7848101 17.0886076,22.4050633 Z M25.6329114,17.1835443 C25.5379747,17.1835443 25.5379747,17.278481 25.5379747,17.3734177 C25.5379747,18.1329114 25.5379747,19.7468354 25.6329114,21.7405063 C25.6329114,22.3101266 25.5379747,22.7848101 25.443038,23.3544304 C25.443038,23.4493671 25.443038,23.4493671 25.443038,23.4493671 C25.3481013,23.9240506 25.2531646,24.3037975 25.1582278,24.6835443 L26.5822785,23.6392405 C26.7721519,22.6898734 26.8670886,21.4556962 26.8670886,19.556962 C26.8670886,19.4620253 26.8670886,19.4620253 26.9620253,19.3670886 C26.9620253,19.2721519 27.056962,19.2721519 27.1518987,19.2721519 L33.0379747,19.2721519 C33.0379747,19.2721519 33.1329114,19.2721519 33.2278481,19.4620253 C33.3227848,19.4620253 33.3227848,19.556962 33.3227848,19.6518987 C33.3227848,22.3101266 33.6075949,23.8291139 33.7974684,24.9683544 C34.0822785,26.1075949 34.2721519,26.7721519 34.2721519,27.8164557 C34.2721519,30 32.5632911,32.0886076 30.2848101,32.0886076 C30.2848101,32.0886076 30.1898734,32.0886076 30.1898734,32.0886076 C30.0949367,32.0886076 30.0949367,32.0886076 30.0949367,32.0886076 C29.0506329,32.0886076 28.0063291,31.7088608 27.2468354,31.0443038 C26.6772152,30.5696203 26.2025316,29.9050633 26.0126582,29.1455696 C25.9177215,29.2405063 25.7278481,29.4303797 25.6329114,29.5253165 C24.9683544,30.1898734 24.3987342,30.664557 24.1139241,30.9493671 C24.3037975,31.8987342 24.6835443,32.8481013 25.443038,33.6075949 C26.3924051,34.6518987 27.8164557,35.3164557 29.9050633,35.3164557 C31.3291139,35.3164557 32.4683544,35.0316456 33.4177215,34.4620253 C33.4177215,34.2721519 33.3227848,34.0822785 33.3227848,33.8924051 C33.3227848,33.7974684 33.3227848,33.7025316 33.3227848,33.6075949 C33.3227848,33.4177215 33.4177215,33.3227848 33.5126582,33.2278481 C33.6075949,33.1329114 33.7025316,33.0379747 33.7974684,32.943038 C33.8924051,32.8481013 33.8924051,32.8481013 33.9873418,32.7531646 C33.9873418,32.6582278 33.8924051,32.5632911 33.8924051,32.3734177 C33.8924051,32.278481 33.8924051,32.278481 33.8924051,32.1835443 C33.9873418,31.9936709 34.0822785,31.8987342 34.2721519,31.8037975 C34.4620253,31.7088608 34.556962,31.6139241 34.8417722,31.6139241 C34.8417722,31.6139241 34.9367089,31.6139241 34.9367089,31.6139241 C35.1265823,31.6139241 35.3164557,31.7088608 35.6012658,31.8987342 C35.8860759,31.1392405 36.0759494,30.3797468 36.0759494,29.5253165 C36.0759494,27.9113924 35.6962025,26.6772152 35.3164557,25.443038 C34.9367089,24.2088608 34.556962,22.8797468 34.556962,21.3607595 C34.556962,19.4620253 34.556962,18.1329114 34.556962,17.4683544 C34.556962,17.4683544 34.556962,17.3734177 34.4620253,17.3734177 C33.9873418,17.4683544 33.7974684,17.5632911 33.6075949,17.7531646 C33.4177215,17.943038 33.3227848,18.1329114 33.3227848,18.1329114 C33.3227848,18.3227848 33.2278481,18.4177215 33.0379747,18.4177215 L26.9620253,18.4177215 C26.8670886,18.4177215 26.6772152,18.3227848 26.6772152,18.1329114 C26.6772152,18.1329114 26.6772152,18.0379747 26.6772152,18.0379747 C26.6772152,17.943038 26.5822785,17.7531646 26.4873418,17.6582278 C26.3924051,17.4683544 26.1075949,17.278481 25.6329114,17.1835443 Z M34.0822785,34.3670886 C34.1772152,34.3670886 34.1772152,34.4620253 34.0822785,34.6518987 C33.9873418,34.8417722 33.9873418,34.8417722 33.8924051,34.9367089 C33.7974684,35.0316456 33.7974684,35.1265823 33.7025316,35.1265823 C33.7025316,35.1265823 33.7025316,35.221519 33.7025316,35.221519 C33.7025316,35.221519 33.7025316,35.221519 33.7974684,35.221519 C33.8924051,35.221519 33.9873418,35.1265823 34.0822785,35.1265823 C34.4620253,34.9367089 34.8417722,34.8417722 34.9367089,34.7468354 C35.0316456,34.6518987 35.9810127,33.8924051 36.0759494,33.7974684 C36.1708861,33.7974684 36.1708861,33.7025316 36.1708861,33.6075949 C36.1708861,33.4177215 36.0759494,33.2278481 35.9810127,33.0379747 C35.8860759,32.8481013 35.6012658,32.6582278 35.3164557,32.4683544 C35.1265823,32.278481 34.9367089,32.1835443 34.8417722,32.1835443 C34.8417722,32.1835443 34.6518987,32.1835443 34.556962,32.278481 C34.4620253,32.3734177 34.4620253,32.5632911 34.4620253,32.5632911 C34.556962,32.5632911 34.556962,32.6582278 34.556962,32.6582278 C34.6518987,32.6582278 34.6518987,32.7531646 34.6518987,32.8481013 C34.6518987,32.943038 34.6518987,33.0379747 34.556962,33.1329114 C34.556962,33.1329114 34.4620253,33.2278481 34.2721519,33.4177215 C34.0822785,33.5126582 33.8924051,33.7025316 33.8924051,33.7974684 C33.8924051,33.7974684 33.8924051,33.8924051 33.8924051,33.8924051 C33.8924051,33.9873418 33.8924051,34.1772152 34.0822785,34.3670886 Z M32.54902,41.5150831 C32.8030923,41.3809769 32.9920283,41.2788438 33.1158276,41.2086837 C33.2402093,41.1381938 33.4235452,41.0293521 33.6658351,40.8821587 C33.5772355,39.9252827 33.3995943,38.0067572 33.1329114,35.1265823 C32.943038,35.221519 32.7531646,35.3164557 32.4683544,35.4113924 C32.5130522,38.7935209 32.5399407,40.8280845 32.54902,41.5150831 Z M24.6153924,43.8691431 C24.930497,43.8327504 25.1664561,43.8044245 25.3232697,43.7841655 C25.4692477,43.7653064 25.6874761,43.7349551 25.9779548,43.6931115 C26.055906,41.3586197 26.1075949,39.8018315 26.1075949,39.778481 C26.1075949,39.6835443 26.0126582,39.5886076 25.9177215,39.5886076 C25.7278481,39.5886076 24.9683544,39.6835443 24.9683544,39.6835443 C24.9272034,40.2596578 24.8147038,41.7811408 24.6153924,43.8691431 Z M16.4240506,33.2278481 C16.4240506,33.3227848 14.4303797,40.2531646 14.4303797,40.2531646 C14.4303797,40.2531646 14.335443,40.5379747 14.335443,40.7278481 C14.5253165,40.8227848 14.5253165,40.8227848 14.6202532,40.9177215 C14.6202532,40.9177215 14.8101266,40.9177215 14.8101266,40.9177215 C14.8101266,40.9177215 19.0822785,39.778481 19.2721519,39.6835443 C19.4620253,39.5886076 19.6518987,39.5886076 19.8417722,39.5886076 C21.0759494,39.4936709 25.9177215,39.1139241 26.1075949,39.1139241 C26.2974684,39.1139241 26.2974684,39.0189873 26.2974684,38.9240506 C26.2974684,38.8291139 26.2974684,35.0316456 26.2974684,35.0316456 C25.7278481,34.6518987 25.2531646,34.3670886 24.8734177,33.8924051 C24.4936709,33.4177215 24.1139241,32.8481013 23.8291139,32.278481 L18.7974684,32.5632911 C18.7974684,32.5632911 18.4177215,32.5632911 18.2278481,32.6582278 C17.943038,32.7531646 16.5189873,33.1329114 16.5189873,33.1329114 C16.5189873,33.1329114 16.4240506,33.1329114 16.4240506,33.2278481 Z M13.9556962,26.2974684 C14.4303797,29.9050633 15.8544304,31.8987342 16.3291139,32.5632911 C16.3291139,32.5632911 16.3291139,32.5632911 16.4240506,32.4683544 C16.5189873,32.4683544 17.5632911,32.0886076 18.0379747,31.9936709 C18.4177215,31.8987342 18.9873418,31.8987342 18.9873418,31.8987342 L23.6392405,31.6139241 C23.5443038,31.4240506 23.4493671,31.2341772 23.4493671,31.0443038 C23.4493671,31.0443038 18.5126582,29.0506329 15.4746835,27.4367089 C15.0949367,27.2468354 14.5253165,26.9620253 14.0506329,26.3924051 C14.0506329,26.3924051 13.9556962,26.2974684 13.9556962,26.2974684 Z M27.056962,39.3987342 C27.056962,39.4936709 26.8670886,39.6835443 26.7721519,39.6835443 C26.6687936,41.6148826 26.6055025,42.909558 26.5822785,43.5675705 C27.7780181,43.3209843 28.6987917,43.0912364 29.3445991,42.8783269 C29.9904066,42.6654174 30.8338173,42.3234717 31.8748316,41.8524898 C31.8631333,40.8386425 31.8394553,38.7865467 31.8037975,35.6962025 C31.2341772,35.7911392 30.5696203,35.8860759 29.9050633,35.8860759 C28.8607595,35.8860759 27.9113924,35.6962025 27.056962,35.4113924 L27.056962,39.3987342 Z M14.7424566,42.4747592 C15.8846165,42.9185514 17.0407013,43.2576285 18.210711,43.4919906 C19.3807208,43.7263528 20.5365454,43.8760809 21.6781849,43.9411752 C21.8857511,42.8830386 22.028139,41.9394447 22.1202532,41.2025316 C22.2151899,40.6329114 22.3101266,40.1582278 22.3101266,39.8734177 L19.9367089,40.0632911 C19.9367089,40.0632911 19.7468354,40.1582278 19.556962,40.1582278 C19.4620253,40.2531646 15.0949367,41.3924051 15.0949367,41.3924051 C15.0949367,41.3924051 15,41.3924051 15,41.4873418 C15,41.5063625 14.900918,41.8836028 14.7424566,42.4747592 Z M22.4486435,43.9588251 C22.8076147,43.956328 23.0766797,43.9524114 23.2558386,43.9470751 C23.4049803,43.942633 23.6283662,43.931882 23.9259962,43.9148222 C24.1147863,41.8455645 24.3037975,40.4392678 24.3037975,39.778481 L23.0696203,39.8734177 C23.0001129,40.4642304 22.8288266,42.0092202 22.4486435,43.9588251 Z M20.5063291,19.556962 C20.5063291,19.4433381 20.5063291,18.7847818 20.5063291,18.2945237 C20.5063291,18.2611404 19.6132033,18.4721207 19.0729969,18.4906266 C18.7128592,18.5029638 18.2096241,18.4538252 17.5632911,18.3432108 L17.5632911,19.2721519 L17.5632911,20.221519 C17.5632911,20.3164557 17.4683544,20.4113924 17.3734177,20.5063291 C17.3734177,20.5063291 17.3791284,20.4732597 17.2841917,20.5681964 L19.2471182,22.0976753 L21.9303797,21.9303797 C21.2341772,21.1075949 20.8860759,20.6962025 20.8860759,20.6962025 C20.7911392,20.6012658 20.7911392,20.5063291 20.6962025,20.4113924 C20.5063291,20.1265823 20.5063291,19.9367089 20.5063291,19.7468354 C20.5063291,19.6518987 20.5063291,19.556962 20.5063291,19.556962 Z M20.8386076,11.5822785 C20.2618546,11.5822785 19.7943038,11.1147277 19.7943038,10.5379747 C19.7943038,9.96122165 20.2618546,9.49367089 20.8386076,9.49367089 C21.4153606,9.49367089 21.8829114,9.96122165 21.8829114,10.5379747 C21.8829114,11.1147277 21.4153606,11.5822785 20.8386076,11.5822785 Z M16.8037975,11.5822785 C16.2270444,11.5822785 15.7594937,11.1147277 15.7594937,10.5379747 C15.7594937,9.96122165 16.2270444,9.49367089 16.8037975,9.49367089 C17.3805505,9.49367089 17.8481013,9.96122165 17.8481013,10.5379747 C17.8481013,11.1147277 17.3805505,11.5822785 16.8037975,11.5822785 Z M15.4272152,12.8164557 L22.2626582,12.8164557 L22.2626582,13.8582803 L15.4272152,13.8582803 L15.4272152,12.8164557 Z M18.8924051,17.943038 C22.3529234,17.943038 25.1582278,15.1377335 25.1582278,11.6772152 C25.1582278,8.21669682 22.3529234,5.41139241 18.8924051,5.41139241 C15.4318867,5.41139241 12.6265823,8.21669682 12.6265823,11.6772152 C12.6265823,15.1377335 15.4318867,17.943038 18.8924051,17.943038 Z" id="path-1"></path>
        <filter x="-4.4%" y="-4.4%" width="108.9%" height="108.9%" filterUnits="objectBoundingBox" id="filter-2">
            <feGaussianBlur stdDeviation="1.5" in="SourceAlpha" result="shadowBlurInner1"></feGaussianBlur>
            <feOffset dx="0" dy="1" in="shadowBlurInner1" result="shadowOffsetInner1"></feOffset>
            <feComposite in="shadowOffsetInner1" in2="SourceAlpha" operator="arithmetic" k2="-1" k3="1" result="shadowInnerInner1"></feComposite>
            <feColorMatrix values="0 0 0 0 0   0 0 0 0 0   0 0 0 0 0  0 0 0 0.5 0" type="matrix" in="shadowInnerInner1"></feColorMatrix>
        </filter>
    </defs>
    <g id="Page-1" stroke="none" stroke-width="1" fill="none" fill-rule="evenodd">
        <g id="duio" fill-rule="nonzero">
            <use fill="#C91D1D" fill-rule="evenodd" xlink:href="#path-1"></use>
            <use fill="black" fill-opacity="1" filter="url(#filter-2)" xlink:href="#path-1"></use>
        </g>
    </g>
</svg>