<?xml version="1.0" encoding="UTF-8"?>
<svg width="258px" height="25px" viewBox="0 0 258 25" version="1.1" xmlns="http://www.w3.org/2000/svg" xmlns:xlink="http://www.w3.org/1999/xlink">
    <!-- Generator: Sketch 46.2 (44496) - http://www.bohemiancoding.com/sketch -->
    <title>morten@noddeland.no</title>
    <desc>Created with Sketch.</desc>
    <defs></defs>
    <g id="Modal" stroke="none" stroke-width="1" fill="none" fill-rule="evenodd">
        <path d="M8.094,19 L8.094,11.642 C8.094,10.9486632 8.06366697,10.3463359 8.003,9.835 C7.94233303,9.32366411 7.8253342,8.8946684 7.652,8.548 C7.4786658,8.2013316 7.23166827,7.9413342 6.911,7.768 C6.59033173,7.5946658 6.1700026,7.508 5.65,7.508 C4.85266268,7.508 4.18966931,7.75066424 3.661,8.236 C3.13233069,8.72133576 2.76400104,9.32799636 2.556,10.056 L2.556,19 L0.476,19 L0.476,6 L1.932,6 L2.322,7.586 L2.426,7.586 C2.89400234,7.03133056 3.43566359,6.57633511 4.051,6.221 C4.66633641,5.86566489 5.46799506,5.688 6.456,5.688 C7.28800416,5.688 7.96833069,5.84833173 8.497,6.169 C9.02566931,6.48966827 9.43733186,7.04866268 9.732,7.846 C10.1306687,7.16999662 10.6809965,6.64133524 11.383,6.26 C12.0850035,5.87866476 12.8779956,5.688 13.762,5.688 C14.4900036,5.688 15.1053308,5.77033251 15.608,5.935 C16.1106692,6.09966749 16.526665,6.38999792 16.856,6.806 C17.185335,7.22200208 17.4236659,7.78532978 17.571,8.496 C17.7183341,9.20667022 17.792,10.1079945 17.792,11.2 L17.792,19 L15.712,19 L15.712,11.174 C15.712,10.5499969 15.681667,10.0083356 15.621,9.549 C15.560333,9.08966437 15.4390009,8.70833485 15.257,8.405 C15.0749991,8.10166515 14.8236683,7.87633407 14.503,7.729 C14.1823317,7.58166593 13.7620026,7.508 13.242,7.508 C12.375329,7.508 11.6993358,7.75066424 11.214,8.236 C10.7286642,8.72133576 10.382001,9.41466216 10.174,10.316 L10.174,19 L8.094,19 Z M20.86,12.5 C20.86,10.2986557 21.3496618,8.61300585 22.329,7.443 C23.3083382,6.27299415 24.7166575,5.688 26.554,5.688 C27.5246715,5.688 28.3696631,5.84833173 29.089,6.169 C29.8083369,6.48966827 30.4019977,6.94899701 30.87,7.547 C31.3380023,8.14500299 31.6846655,8.86432913 31.91,9.705 C32.1353345,10.5456709 32.248,11.4773282 32.248,12.5 C32.248,14.7013443 31.7583382,16.3869942 30.779,17.557 C29.7996618,18.7270059 28.3913425,19.312 26.554,19.312 C25.5833285,19.312 24.7383369,19.1516683 24.019,18.831 C23.2996631,18.5103317 22.7060023,18.051003 22.238,17.453 C21.7699977,16.854997 21.4233345,16.1356709 21.198,15.295 C20.9726655,14.4543291 20.86,13.5226718 20.86,12.5 Z M23.018,12.5 C23.018,13.15867 23.0829994,13.7913303 23.213,14.398 C23.3430007,15.0046697 23.5466653,15.5333311 23.824,15.984 C24.1013347,16.4346689 24.4653311,16.7986653 24.916,17.076 C25.3666689,17.3533347 25.9126635,17.492 26.554,17.492 C28.9113451,17.5093334 30.09,15.8453501 30.09,12.5 C30.09,11.8239966 30.0250007,11.1826697 29.895,10.576 C29.7649993,9.9693303 29.5613347,9.44066892 29.284,8.99 C29.0066653,8.53933108 28.6426689,8.17966801 28.192,7.911 C27.7413311,7.64233199 27.1953365,7.508 26.554,7.508 C24.1966549,7.49066658 23.018,9.15464994 23.018,12.5 Z M41.66,8.002 C41.1399974,7.8286658 40.6460023,7.742 40.178,7.742 C39.4326629,7.742 38.8433355,7.94566463 38.41,8.353 C37.9766645,8.76033537 37.7080005,9.27599688 37.604,9.9 L37.604,19 L35.524,19 L35.524,6 L36.98,6 L37.37,7.586 L37.474,7.586 C37.803335,6.99666372 38.1976644,6.54166827 38.657,6.221 C39.1163356,5.90033173 39.7013298,5.74 40.412,5.74 C40.9146692,5.74 41.4779969,5.8266658 42.102,6 L41.66,8.002 Z M43.428,6 L45.456,6 L45.456,3.426 L47.536,2.828 L47.536,6 L51.072,6 L51.072,7.82 L47.536,7.82 L47.536,15.022 C47.536,15.9233378 47.6486655,16.5603315 47.874,16.933 C48.0993345,17.3056685 48.480664,17.492 49.018,17.492 C49.4686689,17.492 49.8499984,17.4443338 50.162,17.349 C50.4740016,17.2536662 50.8206648,17.1280008 51.202,16.972 L51.67,18.558 C51.2019977,18.7833345 50.6906694,18.9653326 50.136,19.104 C49.5813306,19.2426674 48.9833365,19.312 48.342,19.312 C47.2846614,19.312 46.5393355,19.013003 46.106,18.415 C45.6726645,17.816997 45.456,16.816007 45.456,15.412 L45.456,7.82 L43.428,7.82 L43.428,6 Z M63.162,17.96 C62.6419974,18.3760021 61.9876706,18.7053321 61.199,18.948 C60.4103294,19.1906679 59.5740044,19.312 58.69,19.312 C57.7019951,19.312 56.8440036,19.1516683 56.116,18.831 C55.3879964,18.5103317 54.7900023,18.051003 54.322,17.453 C53.8539977,16.854997 53.5073345,16.1400042 53.282,15.308 C53.0566655,14.4759958 52.944,13.5400052 52.944,12.5 C52.944,10.2813222 53.4379951,8.59133914 54.426,7.43 C55.4140049,6.26866086 56.8266575,5.688 58.664,5.688 C59.2533363,5.688 59.8426637,5.75299935 60.432,5.883 C61.0213363,6.01300065 61.5499977,6.25999818 62.018,6.624 C62.4860023,6.98800182 62.8673319,7.50366333 63.162,8.171 C63.4566681,8.83833667 63.604,9.71799454 63.604,10.81 C63.604,11.3820029 63.5520005,12.0146632 63.448,12.708 L55.102,12.708 C55.102,13.4706705 55.1799992,14.1466637 55.336,14.736 C55.4920008,15.3253363 55.734665,15.8236646 56.064,16.231 C56.393335,16.6383354 56.8223307,16.9503322 57.351,17.167 C57.8796693,17.3836677 58.5253295,17.492 59.288,17.492 C59.8773363,17.492 60.4666637,17.388001 61.056,17.18 C61.6453363,16.971999 62.0873319,16.7293347 62.382,16.452 L63.162,17.96 Z M58.69,7.508 C57.6673282,7.508 56.8483364,7.77666398 56.233,8.314 C55.6176636,8.85133602 55.2493339,9.7699935 55.128,11.07 L61.576,11.07 C61.576,9.75266008 61.3246692,8.82966931 60.822,8.301 C60.3193308,7.77233069 59.6086713,7.508 58.69,7.508 Z M75.226,19 L75.226,11.59 C75.226,10.2379932 75.031002,9.21967009 74.641,8.535 C74.250998,7.85032991 73.5360052,7.508 72.496,7.508 C71.5773287,7.508 70.819003,7.75499753 70.221,8.249 C69.622997,8.74300247 69.2026679,9.36266294 68.96,10.108 L68.96,19 L66.88,19 L66.88,6 L68.336,6 L68.726,7.586 L68.83,7.586 C69.2460021,7.03133056 69.8049965,6.57633511 70.507,6.221 C71.2090035,5.86566489 72.0453285,5.688 73.016,5.688 C73.7266702,5.688 74.350664,5.77033251 74.888,5.935 C75.425336,6.09966749 75.8716649,6.38999792 76.227,6.806 C76.5823351,7.22200208 76.8509991,7.78099649 77.033,8.483 C77.2150009,9.18500351 77.306,10.073328 77.306,11.148 L77.306,19 L75.226,19 Z M97.482,6.234 L98.366,6.234 L97.04,13.696 C96.9533329,14.1466689 96.8883335,14.5496649 96.845,14.905 C96.8016665,15.2603351 96.78,15.5766653 96.78,15.854 C96.78,16.2873355 96.8536659,16.6036657 97.001,16.803 C97.1483341,17.0023343 97.4039982,17.102 97.768,17.102 C98.3573363,17.102 98.9423304,16.9460016 99.523,16.634 C100.10367,16.3219984 100.619331,15.8800029 101.07,15.308 C101.520669,14.7359971 101.888999,14.047004 102.175,13.241 C102.461001,12.434996 102.604,11.5293384 102.604,10.524 C102.604,9.18932666 102.378669,8.01067178 101.928,6.988 C101.477331,5.96532822 100.844671,5.10300351 100.03,4.401 C99.2153293,3.69899649 98.2446723,3.16600182 97.118,2.802 C95.9913277,2.43799818 94.7520068,2.256 93.4,2.256 C91.995993,2.256 90.6743395,2.5159974 89.435,3.036 C88.1956605,3.5560026 87.1210045,4.27532874 86.211,5.194 C85.3009955,6.11267126 84.5816693,7.21332692 84.053,8.496 C83.5243307,9.77867308 83.26,11.1739925 83.26,12.682 C83.26,14.2246744 83.498331,15.6026606 83.975,16.816 C84.451669,18.0293394 85.1319956,19.0519958 86.016,19.884 C86.9000044,20.7160042 87.9573272,21.3486645 89.188,21.782 C90.4186728,22.2153355 91.7879925,22.432 93.296,22.432 C93.7986692,22.432 94.3706635,22.3756672 95.012,22.263 C95.6533365,22.1503328 96.2339974,21.9640013 96.754,21.704 L97.274,23.368 C96.4939961,23.697335 95.77467,23.9183328 95.116,24.031 C94.45733,24.1436672 93.7466705,24.2 92.984,24.2 C91.3719919,24.2 89.8596737,23.9573358 88.447,23.472 C87.0343263,22.9866642 85.8036719,22.2673381 84.755,21.314 C83.7063281,20.3606619 82.8786697,19.1776737 82.272,17.765 C81.6653303,16.3523263 81.362,14.7186759 81.362,12.864 C81.362,10.9746572 81.6869967,9.26734096 82.337,7.742 C82.9870033,6.21665904 83.8666611,4.91667204 84.976,3.842 C86.0853389,2.76732796 87.3766593,1.93966957 88.85,1.359 C90.3233407,0.77833043 91.8833251,0.488 93.53,0.488 C95.0900078,0.488 96.5373267,0.71766437 97.872,1.177 C99.2066733,1.63633563 100.363662,2.29499571 101.343,3.153 C102.322338,4.01100429 103.093664,5.05966047 103.657,6.299 C104.220336,7.53833953 104.502,8.94665878 104.502,10.524 C104.502,11.6333389 104.311335,12.6949949 103.93,13.709 C103.548665,14.7230051 103.033003,15.6113295 102.383,16.374 C101.732997,17.1366705 100.974671,17.7476644 100.108,18.207 C99.241329,18.6663356 98.3226715,18.896 97.352,18.896 C96.6239964,18.896 96.0433355,18.7400016 95.61,18.428 C95.1766645,18.1159984 94.96,17.5353376 94.96,16.686 C94.96,16.5299992 94.9686666,16.3610009 94.986,16.179 C95.0033334,15.9969991 95.0293332,15.802001 95.064,15.594 L94.96,15.594 C94.7173321,15.9926687 94.431335,16.386998 94.102,16.777 C93.772665,17.1670019 93.4043354,17.5179984 92.997,17.83 C92.5896646,18.1420016 92.1563356,18.3976657 91.697,18.597 C91.2376644,18.7963343 90.7566692,18.896 90.254,18.896 C89.8379979,18.896 89.4393352,18.8050009 89.058,18.623 C88.6766648,18.4409991 88.3473347,18.1766684 88.07,17.83 C87.7926653,17.4833316 87.5716675,17.0716691 87.407,16.595 C87.2423325,16.1183309 87.16,15.5766697 87.16,14.97 C87.16,13.8606611 87.3419982,12.768672 87.706,11.694 C88.0700018,10.619328 88.5596636,9.66600416 89.175,8.834 C89.7903364,8.00199584 90.5096626,7.33033589 91.333,6.819 C92.1563375,6.30766411 93.0273287,6.052 93.946,6.052 C94.5873365,6.052 95.0986648,6.14733238 95.48,6.338 C95.8613352,6.52866762 96.2339982,6.76266528 96.598,7.04 L97.482,6.234 Z M96,8.782 C95.7053319,8.4353316 95.4106681,8.19700065 95.116,8.067 C94.8213319,7.93699935 94.4486689,7.872 93.998,7.872 C93.3219966,7.872 92.6893363,8.07566463 92.1,8.483 C91.5106637,8.89033537 91.0036688,9.41899675 90.579,10.069 C90.1543312,10.7190033 89.8163346,11.446996 89.565,12.253 C89.3136654,13.059004 89.188,13.8519961 89.188,14.632 C89.188,15.3080034 89.3266653,15.8843309 89.604,16.361 C89.8813347,16.837669 90.3839964,17.076 91.112,17.076 C91.4586684,17.076 91.8183315,16.9633345 92.191,16.738 C92.5636685,16.5126655 92.9319982,16.2050019 93.296,15.815 C93.6600018,15.424998 94.006665,14.9873358 94.336,14.502 C94.665335,14.0166642 94.9599987,13.5226692 95.22,13.02 L96,8.782 Z M117.112,19 L117.112,11.59 C117.112,10.2379932 116.917002,9.21967009 116.527,8.535 C116.136998,7.85032991 115.422005,7.508 114.382,7.508 C113.463329,7.508 112.705003,7.75499753 112.107,8.249 C111.508997,8.74300247 111.088668,9.36266294 110.846,10.108 L110.846,19 L108.766,19 L108.766,6 L110.222,6 L110.612,7.586 L110.716,7.586 C111.132002,7.03133056 111.690996,6.57633511 112.393,6.221 C113.095004,5.86566489 113.931328,5.688 114.902,5.688 C115.61267,5.688 116.236664,5.77033251 116.774,5.935 C117.311336,6.09966749 117.757665,6.38999792 118.113,6.806 C118.468335,7.22200208 118.736999,7.78099649 118.919,8.483 C119.101001,9.18500351 119.192,10.073328 119.192,11.148 L119.192,19 L117.112,19 Z M122.26,12.5 C122.26,10.2986557 122.749662,8.61300585 123.729,7.443 C124.708338,6.27299415 126.116657,5.688 127.954,5.688 C128.924672,5.688 129.769663,5.84833173 130.489,6.169 C131.208337,6.48966827 131.801998,6.94899701 132.27,7.547 C132.738002,8.14500299 133.084666,8.86432913 133.31,9.705 C133.535334,10.5456709 133.648,11.4773282 133.648,12.5 C133.648,14.7013443 133.158338,16.3869942 132.179,17.557 C131.199662,18.7270059 129.791343,19.312 127.954,19.312 C126.983328,19.312 126.138337,19.1516683 125.419,18.831 C124.699663,18.5103317 124.106002,18.051003 123.638,17.453 C123.169998,16.854997 122.823334,16.1356709 122.598,15.295 C122.372666,14.4543291 122.26,13.5226718 122.26,12.5 Z M124.418,12.5 C124.418,13.15867 124.482999,13.7913303 124.613,14.398 C124.743001,15.0046697 124.946665,15.5333311 125.224,15.984 C125.501335,16.4346689 125.865331,16.7986653 126.316,17.076 C126.766669,17.3533347 127.312663,17.492 127.954,17.492 C130.311345,17.5093334 131.49,15.8453501 131.49,12.5 C131.49,11.8239966 131.425001,11.1826697 131.295,10.576 C131.164999,9.9693303 130.961335,9.44066892 130.684,8.99 C130.406665,8.53933108 130.042669,8.17966801 129.592,7.911 C129.141331,7.64233199 128.595337,7.508 127.954,7.508 C125.596655,7.49066658 124.418,9.15464994 124.418,12.5 Z M146.908,14.528 C146.908,15.4120044 146.916667,16.2136631 146.934,16.933 C146.951333,17.6523369 147.029333,18.3586632 147.168,19.052 L145.764,19.052 L145.244,17.206 L145.14,17.206 C144.793332,17.8126697 144.29067,18.3153313 143.632,18.714 C142.97333,19.1126687 142.202004,19.312 141.318,19.312 C139.584658,19.312 138.297671,18.7660055 137.457,17.674 C136.616329,16.5819945 136.196,14.8746783 136.196,12.552 C136.196,10.3333222 136.720328,8.64767243 137.769,7.495 C138.817672,6.34232757 140.260657,5.766 142.098,5.766 C142.739337,5.766 143.246331,5.80066632 143.619,5.87 C143.991669,5.93933368 144.394665,6.05199922 144.828,6.208 L144.828,0.8 L146.908,0.8 L146.908,14.528 Z M141.656,17.492 C142.540004,17.492 143.241997,17.2623356 143.762,16.803 C144.282003,16.3436644 144.637332,15.6460047 144.828,14.71 L144.828,8.262 C144.515998,8.01933212 144.160669,7.84600052 143.762,7.742 C143.363331,7.63799948 142.83467,7.586 142.176,7.586 C140.979994,7.586 140.044003,7.98032939 139.368,8.769 C138.691997,9.55767061 138.354,10.818658 138.354,12.552 C138.354,13.2626702 138.410333,13.9213303 138.523,14.528 C138.635667,15.1346697 138.821999,15.6546645 139.082,16.088 C139.342001,16.5213355 139.684331,16.8636654 140.109,17.115 C140.533669,17.3663346 141.04933,17.492 141.656,17.492 Z M160.896,14.528 C160.896,15.4120044 160.904667,16.2136631 160.922,16.933 C160.939333,17.6523369 161.017333,18.3586632 161.156,19.052 L159.752,19.052 L159.232,17.206 L159.128,17.206 C158.781332,17.8126697 158.27867,18.3153313 157.62,18.714 C156.96133,19.1126687 156.190004,19.312 155.306,19.312 C153.572658,19.312 152.285671,18.7660055 151.445,17.674 C150.604329,16.5819945 150.184,14.8746783 150.184,12.552 C150.184,10.3333222 150.708328,8.64767243 151.757,7.495 C152.805672,6.34232757 154.248657,5.766 156.086,5.766 C156.727337,5.766 157.234331,5.80066632 157.607,5.87 C157.979669,5.93933368 158.382664,6.05199922 158.816,6.208 L158.816,0.8 L160.896,0.8 L160.896,14.528 Z M155.644,17.492 C156.528004,17.492 157.229997,17.2623356 157.75,16.803 C158.270003,16.3436644 158.625332,15.6460047 158.816,14.71 L158.816,8.262 C158.503998,8.01933212 158.148669,7.84600052 157.75,7.742 C157.351331,7.63799948 156.82267,7.586 156.164,7.586 C154.967994,7.586 154.032003,7.98032939 153.356,8.769 C152.679997,9.55767061 152.342,10.818658 152.342,12.552 C152.342,13.2626702 152.398333,13.9213303 152.511,14.528 C152.623667,15.1346697 152.809999,15.6546645 153.07,16.088 C153.330001,16.5213355 153.672331,16.8636654 154.097,17.115 C154.521669,17.3663346 155.03733,17.492 155.644,17.492 Z M174.39,17.96 C173.869997,18.3760021 173.215671,18.7053321 172.427,18.948 C171.638329,19.1906679 170.802004,19.312 169.918,19.312 C168.929995,19.312 168.072004,19.1516683 167.344,18.831 C166.615996,18.5103317 166.018002,18.051003 165.55,17.453 C165.081998,16.854997 164.735334,16.1400042 164.51,15.308 C164.284666,14.4759958 164.172,13.5400052 164.172,12.5 C164.172,10.2813222 164.665995,8.59133914 165.654,7.43 C166.642005,6.26866086 168.054657,5.688 169.892,5.688 C170.481336,5.688 171.070664,5.75299935 171.66,5.883 C172.249336,6.01300065 172.777998,6.25999818 173.246,6.624 C173.714002,6.98800182 174.095332,7.50366333 174.39,8.171 C174.684668,8.83833667 174.832,9.71799454 174.832,10.81 C174.832,11.3820029 174.780001,12.0146632 174.676,12.708 L166.33,12.708 C166.33,13.4706705 166.407999,14.1466637 166.564,14.736 C166.720001,15.3253363 166.962665,15.8236646 167.292,16.231 C167.621335,16.6383354 168.050331,16.9503322 168.579,17.167 C169.107669,17.3836677 169.75333,17.492 170.516,17.492 C171.105336,17.492 171.694664,17.388001 172.284,17.18 C172.873336,16.971999 173.315332,16.7293347 173.61,16.452 L174.39,17.96 Z M169.918,7.508 C168.895328,7.508 168.076336,7.77666398 167.461,8.314 C166.845664,8.85133602 166.477334,9.7699935 166.356,11.07 L172.804,11.07 C172.804,9.75266008 172.552669,8.82966931 172.05,8.301 C171.547331,7.77233069 170.836671,7.508 169.918,7.508 Z M180.422,15.802 C180.422,16.4086697 180.525999,16.8419987 180.734,17.102 C180.942001,17.3620013 181.236665,17.492 181.618,17.492 C181.843334,17.492 182.085999,17.4746668 182.346,17.44 C182.606001,17.4053332 182.900665,17.3273339 183.23,17.206 L183.464,18.844 C183.186665,18.9826674 182.801002,19.0953329 182.307,19.182 C181.812998,19.2686671 181.384002,19.312 181.02,19.312 C180.239996,19.312 179.598669,19.0910022 179.096,18.649 C178.593331,18.2069978 178.342,17.4573386 178.342,16.4 L178.342,0.8 L180.422,0.8 L180.422,15.802 Z M185.492,6.962 C186.15067,6.56333134 186.917662,6.26866762 187.793,6.078 C188.668338,5.88733238 189.582662,5.792 190.536,5.792 C191.437338,5.792 192.160997,5.91333212 192.707,6.156 C193.253003,6.39866788 193.668999,6.71499805 193.955,7.105 C194.241001,7.49500195 194.431666,7.92399766 194.527,8.392 C194.622334,8.86000234 194.67,9.32799766 194.67,9.796 C194.67,10.8360052 194.644,11.8499951 194.592,12.838 C194.54,13.8260049 194.514,14.7619956 194.514,15.646 C194.514,16.2873365 194.54,16.8939971 194.592,17.466 C194.644,18.0380029 194.739333,18.5666642 194.878,19.052 L193.344,19.052 L192.798,17.232 L192.668,17.232 C192.511999,17.4746679 192.317001,17.7129988 192.083,17.947 C191.848999,18.1810012 191.567335,18.3889991 191.238,18.571 C190.908665,18.7530009 190.527335,18.9046661 190.094,19.026 C189.660664,19.1473339 189.166669,19.208 188.612,19.208 C188.057331,19.208 187.541669,19.1213342 187.065,18.948 C186.588331,18.7746658 186.176668,18.5276683 185.83,18.207 C185.483332,17.8863317 185.210334,17.5006689 185.011,17.05 C184.811666,16.5993311 184.712,16.0880029 184.712,15.516 C184.712,14.7533295 184.867998,14.1163359 185.18,13.605 C185.492002,13.0936641 185.929664,12.6863348 186.493,12.383 C187.056336,12.0796651 187.732329,11.8630007 188.521,11.733 C189.309671,11.6029994 190.180662,11.538 191.134,11.538 L191.849,11.538 C192.083001,11.538 192.321332,11.5553332 192.564,11.59 C192.616,11.0699974 192.642,10.6020021 192.642,10.186 C192.642,9.2326619 192.451335,8.56533524 192.07,8.184 C191.688665,7.80266476 190.995338,7.612 189.99,7.612 C189.695332,7.612 189.379002,7.63366645 189.041,7.677 C188.702998,7.72033355 188.356335,7.78099961 188.001,7.859 C187.645665,7.93700039 187.307668,8.03233277 186.987,8.145 C186.666332,8.25766723 186.384668,8.38333264 186.142,8.522 L185.492,6.962 Z M189.184,17.388 C189.669336,17.388 190.102665,17.3230006 190.484,17.193 C190.865335,17.0629993 191.194665,16.8983343 191.472,16.699 C191.749335,16.4996657 191.978999,16.2786679 192.161,16.036 C192.343001,15.7933321 192.477333,15.5593345 192.564,15.334 L192.564,13.176 C192.321332,13.1586666 192.074335,13.1456667 191.823,13.137 C191.571665,13.1283333 191.324668,13.124 191.082,13.124 C190.544664,13.124 190.020336,13.154333 189.509,13.215 C188.997664,13.275667 188.547002,13.3883325 188.157,13.553 C187.766998,13.7176675 187.455001,13.9429986 187.221,14.229 C186.986999,14.5150014 186.87,14.8746645 186.87,15.308 C186.87,15.9146697 187.086665,16.412998 187.52,16.803 C187.953335,17.1930019 188.507997,17.388 189.184,17.388 Z M206.942,19 L206.942,11.59 C206.942,10.2379932 206.747002,9.21967009 206.357,8.535 C205.966998,7.85032991 205.252005,7.508 204.212,7.508 C203.293329,7.508 202.535003,7.75499753 201.937,8.249 C201.338997,8.74300247 200.918668,9.36266294 200.676,10.108 L200.676,19 L198.596,19 L198.596,6 L200.052,6 L200.442,7.586 L200.546,7.586 C200.962002,7.03133056 201.520996,6.57633511 202.223,6.221 C202.925004,5.86566489 203.761328,5.688 204.732,5.688 C205.44267,5.688 206.066664,5.77033251 206.604,5.935 C207.141336,6.09966749 207.587665,6.38999792 207.943,6.806 C208.298335,7.22200208 208.566999,7.78099649 208.749,8.483 C208.931001,9.18500351 209.022,10.073328 209.022,11.148 L209.022,19 L206.942,19 Z M222.802,14.528 C222.802,15.4120044 222.810667,16.2136631 222.828,16.933 C222.845333,17.6523369 222.923333,18.3586632 223.062,19.052 L221.658,19.052 L221.138,17.206 L221.034,17.206 C220.687332,17.8126697 220.18467,18.3153313 219.526,18.714 C218.86733,19.1126687 218.096004,19.312 217.212,19.312 C215.478658,19.312 214.191671,18.7660055 213.351,17.674 C212.510329,16.5819945 212.09,14.8746783 212.09,12.552 C212.09,10.3333222 212.614328,8.64767243 213.663,7.495 C214.711672,6.34232757 216.154657,5.766 217.992,5.766 C218.633337,5.766 219.140331,5.80066632 219.513,5.87 C219.885669,5.93933368 220.288664,6.05199922 220.722,6.208 L220.722,0.8 L222.802,0.8 L222.802,14.528 Z M217.55,17.492 C218.434004,17.492 219.135997,17.2623356 219.656,16.803 C220.176003,16.3436644 220.531332,15.6460047 220.722,14.71 L220.722,8.262 C220.409998,8.01933212 220.054669,7.84600052 219.656,7.742 C219.257331,7.63799948 218.72867,7.586 218.07,7.586 C216.873994,7.586 215.938003,7.98032939 215.262,8.769 C214.585997,9.55767061 214.248,10.818658 214.248,12.552 C214.248,13.2626702 214.304333,13.9213303 214.417,14.528 C214.529667,15.1346697 214.715999,15.6546645 214.976,16.088 C215.236001,16.5213355 215.578331,16.8636654 216.003,17.115 C216.427669,17.3663346 216.94333,17.492 217.55,17.492 Z M226.078,17.804 C226.078,17.3359977 226.212332,16.967668 226.481,16.699 C226.749668,16.430332 227.109331,16.296 227.56,16.296 C228.028002,16.296 228.400665,16.430332 228.678,16.699 C228.955335,16.967668 229.094,17.3359977 229.094,17.804 C229.094,18.2546689 228.955335,18.6186653 228.678,18.896 C228.400665,19.1733347 228.028002,19.312 227.56,19.312 C227.109331,19.312 226.749668,19.1733347 226.481,18.896 C226.212332,18.6186653 226.078,18.2546689 226.078,17.804 Z M240.716,19 L240.716,11.59 C240.716,10.2379932 240.521002,9.21967009 240.131,8.535 C239.740998,7.85032991 239.026005,7.508 237.986,7.508 C237.067329,7.508 236.309003,7.75499753 235.711,8.249 C235.112997,8.74300247 234.692668,9.36266294 234.45,10.108 L234.45,19 L232.37,19 L232.37,6 L233.826,6 L234.216,7.586 L234.32,7.586 C234.736002,7.03133056 235.294996,6.57633511 235.997,6.221 C236.699004,5.86566489 237.535328,5.688 238.506,5.688 C239.21667,5.688 239.840664,5.77033251 240.378,5.935 C240.915336,6.09966749 241.361665,6.38999792 241.717,6.806 C242.072335,7.22200208 242.340999,7.78099649 242.523,8.483 C242.705001,9.18500351 242.796,10.073328 242.796,11.148 L242.796,19 L240.716,19 Z M245.864,12.5 C245.864,10.2986557 246.353662,8.61300585 247.333,7.443 C248.312338,6.27299415 249.720657,5.688 251.558,5.688 C252.528672,5.688 253.373663,5.84833173 254.093,6.169 C254.812337,6.48966827 255.405998,6.94899701 255.874,7.547 C256.342002,8.14500299 256.688666,8.86432913 256.914,9.705 C257.139334,10.5456709 257.252,11.4773282 257.252,12.5 C257.252,14.7013443 256.762338,16.3869942 255.783,17.557 C254.803662,18.7270059 253.395343,19.312 251.558,19.312 C250.587328,19.312 249.742337,19.1516683 249.023,18.831 C248.303663,18.5103317 247.710002,18.051003 247.242,17.453 C246.773998,16.854997 246.427334,16.1356709 246.202,15.295 C245.976666,14.4543291 245.864,13.5226718 245.864,12.5 Z M248.022,12.5 C248.022,13.15867 248.086999,13.7913303 248.217,14.398 C248.347001,15.0046697 248.550665,15.5333311 248.828,15.984 C249.105335,16.4346689 249.469331,16.7986653 249.92,17.076 C250.370669,17.3533347 250.916663,17.492 251.558,17.492 C253.915345,17.5093334 255.094,15.8453501 255.094,12.5 C255.094,11.8239966 255.029001,11.1826697 254.899,10.576 C254.768999,9.9693303 254.565335,9.44066892 254.288,8.99 C254.010665,8.53933108 253.646669,8.17966801 253.196,7.911 C252.745331,7.64233199 252.199337,7.508 251.558,7.508 C249.200655,7.49066658 248.022,9.15464994 248.022,12.5 Z" id="morten@noddeland.no" fill="#2F2F2F"></path>
    </g>
</svg>