<?xml version="1.0" encoding="UTF-8"?>
<svg width="54px" height="54px" viewBox="0 0 54 54" version="1.1" xmlns="http://www.w3.org/2000/svg" xmlns:xlink="http://www.w3.org/1999/xlink">
    <!-- Generator: Sketch 46.1 (44463) - http://www.bohemiancoding.com/sketch -->
    <title>Shape</title>
    <desc>Created with Sketch.</desc>
    <defs>
        <circle id="path-1" cx="27" cy="27" r="27"></circle>
    </defs>
    <g id="Page-1" stroke="none" stroke-width="1" fill="none" fill-rule="evenodd">
        <g id="Shape">
            <mask id="mask-2" fill="white">
                <use xlink:href="#path-1"></use>
            </mask>
            <g id="Mask"></g>
            <path d="M45.017197,47.4766453 C44.360298,48.3206428 43.4658551,49.3711874 42.3862756,50.4772182 C42.3727328,50.7450192 42.3723802,51.0145607 42.3967049,51.2872947 C42.3727788,52.4580856 41.5746049,52.5869889 41.2705763,51.5738797 C40.7038069,52.1080149 40.0992417,52.6435287 39.4624725,53.1643034 C39.4018741,54.0788132 39.4670512,55.0091993 39.293319,55.910637 L39.1434731,55.920285 C38.6959073,55.4340237 37.7790874,55.2391332 37.8007757,54.4730786 C37.8051238,54.455824 37.8094306,54.4385503 37.8136965,54.4212576 C35.2888858,56.2060892 32.3911079,57.6104808 29.3986851,57.8321829 C29.2127745,58.5294811 28.8405402,59.1437174 28.157408,59.5846119 C27.4791585,59.9396599 26.6589498,59.8605459 26.0043601,59.5460197 C25.3990618,59.2700857 25.2965357,58.6738366 24.9810708,58.2184489 C24.8987447,57.9662284 24.8086006,57.7089402 24.7223661,57.4470577 C20.023107,56.4153781 15.5007824,53.6718031 12.3546578,51.3297324 C12.2580643,51.3263141 12.084822,51.1985803 11.8915183,50.9804041 C11.0341846,50.3252152 10.2937717,49.7113423 9.69813115,49.1878662 C9.37612961,49.614987 9.01920729,50.0278242 8.61830085,50.4286188 C8.39550376,50.5077328 8.27128946,50.3224904 8.10369873,50.2530245 C7.85921344,49.9963865 7.68176443,49.6644938 7.79217714,49.2843609 C7.91244814,48.8019588 8.52168972,48.7980995 8.70308204,48.3234158 C8.71528448,48.3178883 8.7273852,48.3122268 8.73938711,48.3064352 C8.29913855,47.8785917 8.05701151,47.5991785 8.05046403,47.5342059 C8.11947198,46.5057245 8.16087675,45.5042576 8.01497423,44.4603393 C7.75471569,44.0242478 7.46291066,43.6055227 7.38798774,43.0768099 C7.16716231,42.0560469 7.77443224,41.3478806 8.48225661,40.6590103 C9.00474535,39.4973859 8.91404919,38.0984196 9.08163992,36.8075114 C9.29852204,34.8258034 9.57258217,32.8730394 10.1601355,31.0244743 C10.0812693,29.4132511 9.68299488,27.821324 10.2074553,26.2776371 C10.369131,25.4556238 10.2390018,24.517834 10.8166969,23.842471 C11.0158341,23.1478119 11.3174974,22.4956041 11.560011,21.8337484 C11.7768931,20.3672458 10.793037,19.2789465 10.6648794,17.8954171 C10.4775721,17.1177848 10.24886,16.2359537 10.4006775,15.4177996 C10.4775721,14.7694511 10.724029,14.1616244 11.027664,13.6251932 C11.0789271,13.3955698 11.1893398,13.1196357 11.4022786,13 C11.3845337,13.7583362 11.7690065,14.3893182 12.2934669,14.9450455 C13.4528004,16.0121191 15.1503959,15.0781885 16.5246399,15.6069013 C17.0372703,15.6937337 17.5301842,15.9658085 18.0152115,16.0526409 C19.2829861,15.4139404 20.8267924,14.8254098 22.4021453,15.2209795 C24.1766353,15.3676298 25.6415755,14.52825 27.3371993,14.5919271 C28.7074999,14.5224612 29.7564207,15.2769382 31.128693,15.2074723 C31.9903065,15.2846566 32.9544461,15.2113315 33.9047842,15.2711494 C34.3208035,15.5027024 34.7920292,15.6165493 35.1942469,15.9059906 C35.9986824,16.3652375 36.6493288,15.6030421 37.4655942,15.6532119 C38.6899923,15.5162097 40.0524064,15.6898744 41.1387886,15.2441349 C41.8623862,14.6498154 42.9448252,14.2445976 43.2386019,13.275934 C43.3095815,13.2354123 43.4101359,13.1292838 43.5146336,13.212257 C43.7196858,13.7351809 43.5185769,14.3430076 43.5678683,14.9257494 C43.4121075,15.6049717 43.4633706,16.3594486 43.1321324,16.9711346 C42.7575179,18.0266305 42.2034827,19.0280974 41.5291764,19.9485207 C41.1447036,20.7743932 41.8919611,21.3397686 41.9866005,22.0807383 C42.6017571,23.0783459 43.0020032,24.1820821 43.1715656,25.3765098 C43.5028037,26.7002214 43.690111,28.0933988 43.8813616,29.4904355 C44.0193775,30.6771448 43.9957176,31.8078954 44.2638628,32.9289981 C44.3407573,33.9671275 44.3308991,35.0284123 44.634534,36.0028646 C44.514263,36.7380455 44.9657722,37.2243069 45.001262,37.8958107 C45.001262,38.7815011 46.1566522,38.9204329 46.3321295,39.7289389 C46.5805581,40.2209891 46.5963314,40.7960125 46.3794493,41.30157 C46.0363812,41.5389118 45.4586861,41.7878313 45.5750138,42.3261922 C45.5612122,43.2408267 45.9180818,43.9895148 46.0915875,44.8173169 C46.2729798,45.0083482 46.123134,45.3595369 46.2611499,45.5660051 C46.2969223,45.6170605 46.1163859,45.9525985 45.7508277,46.4824365 C45.9233593,46.6448243 46.0905712,46.8023324 46.2473483,46.9379568 C46.3735343,47.1945948 46.5568983,47.4068517 46.5253518,47.7329556 C46.3498744,47.8950427 46.2118585,48.2539499 45.8963936,48.130455 C45.6165506,47.9131807 45.3163088,47.6989778 45.017197,47.4766453 Z M43.9385396,38.8046564 C43.7433457,39.1770709 43.3509862,39.6131624 43.5166053,40.058902 C43.9503695,40.556741 44.6187608,41.0198471 45.3305285,40.9233667 C45.5513539,40.8172382 45.5572689,40.5220081 45.5375523,40.2750182 C45.241804,39.9952249 45.3285568,39.4800194 44.8514161,39.3333692 C44.7488901,38.9416586 44.2559761,38.9570955 43.9385396,38.8046564 Z M39.4624725,53.1643034 C39.4816496,52.874895 39.513423,52.5870766 39.5693507,52.3022688 C39.636387,52.1401817 39.5121727,51.9066991 39.642302,51.7735561 C39.7862329,50.6196501 39.7191966,49.3789117 39.8158077,48.2076393 C39.6915934,46.6407971 39.9617102,45.1974498 39.9005889,43.6576221 C39.41359,43.3488847 39.1572747,42.7873686 38.6012678,42.6137038 C38.5105717,42.6194927 38.5283166,42.7159731 38.4869118,42.7661429 C38.5992962,44.5278756 38.6545025,46.3745111 38.3962157,48.1072997 C38.2535247,50.1905411 38.3046169,52.4311926 37.8136965,54.4212576 C38.3833393,54.0185674 38.9339968,53.5965115 39.4624725,53.1643034 Z M12.8849636,33.0370561 C13.1195906,32.9579422 13.2122584,32.5585132 13.5001202,32.7669109 C13.4173106,33.0061824 13.289153,33.2126505 13.1452221,33.4191187 C12.9421416,34.5363621 14.233576,34.8624659 14.9078823,35.4413485 C15.0715297,35.4645038 15.2233472,35.3853899 15.2765819,35.2387396 C15.5269821,34.6791531 15.854277,34.0867633 16.2387498,33.5484024 C16.4694335,33.3824561 16.684344,33.0100416 16.9722057,33.1624807 C16.8953111,33.5889242 16.4122555,33.8648583 16.2584664,34.2642872 C16.2584664,34.7428302 15.6452815,35.0534972 15.8858235,35.601506 C16.2407215,36.0414568 16.7533519,36.2170512 17.2088044,36.4833372 C17.932402,36.76506 17.8456491,35.8504256 18.2853283,35.6150133 C18.3602513,35.5551954 18.4903805,35.4509966 18.5672751,35.5783507 C18.5830483,36.0472456 18.5416436,36.6184098 19.0108976,36.7920746 C19.3914271,36.6492835 19.8882844,36.8113707 20.2392391,36.612621 C20.4718944,36.3733495 20.2806438,35.9642725 20.3595101,35.6748312 C20.3516234,35.3525865 20.3417652,34.9628056 20.4640078,34.6637162 C20.5369591,34.5865319 20.6138536,34.659857 20.6887765,34.6868715 C20.7558128,35.3680234 20.8070759,36.0568937 21.3709694,36.5161405 C21.5819365,36.5856064 21.8461384,36.5084221 21.9624661,36.3424758 C22.0551339,35.9160322 21.7002359,35.5629139 21.3650544,35.3371497 C21.1304274,34.9357911 20.846509,34.4360224 21.0693061,33.9343242 C21.1422573,33.8687175 21.2783016,33.8918728 21.3236497,33.984494 C21.4675805,34.7524782 22.0551339,35.4374893 22.7373267,35.8504256 C23.03899,35.9333987 23.4037463,36.1958255 23.6817498,35.956554 L23.4293779,35.6130837 C23.1986941,35.4008267 23.4175479,35.23681 23.4707826,35.0013977 C23.3327667,34.872114 23.2124957,34.7563375 23.0173018,34.7659855 C22.5145296,34.3704157 22.0511906,33.8745063 22.151745,33.2165098 C22.1773765,33.0640707 22.3035625,32.8768986 22.4869265,33.0003936 C22.7649299,33.2859757 22.987727,33.8050404 23.4964141,33.772237 C23.6265434,33.6661086 23.5023291,33.5098103 23.4845842,33.3901745 C23.2598155,33.0042528 23.0843381,32.5874573 22.8792859,32.1860987 C22.7984481,32.012434 22.7195818,31.8136843 22.8930875,31.657386 C23.1277145,31.5068765 23.2262973,31.8831502 23.4076896,31.8927982 C23.5003575,31.4663547 23.5437339,31.0148263 23.5614788,30.5594387 L23.4195196,30.4031404 C22.7609866,30.2468421 22.6052258,31.0148263 22.1261135,31.3775927 C22.1320285,31.533891 22.1655466,31.7133446 22.0531622,31.8329804 C21.9328912,31.844558 21.8264218,31.8233323 21.733754,31.7538664 C21.5109569,31.6863301 21.1935204,31.6612452 21.0673344,31.8870094 C20.9293185,32.253635 21.2999898,32.6549936 21.0121281,32.9386461 C20.6473718,32.7611221 20.6335702,32.3095937 20.2589556,32.1629434 C20.0775633,32.1089144 19.838993,32.1590842 19.769985,32.3616931 C19.6891471,33.0370561 19.2593262,33.575417 19.2198931,34.2642872 C19.1351119,34.4514593 19.2908727,34.7273933 19.1193387,34.8798324 C18.6303681,34.0636079 18.9852661,32.9405757 19.0621607,32.022082 C18.6954327,31.7538664 18.2419519,31.5802016 17.7924144,31.5010877 C17.6839734,31.4046072 17.4197715,31.5898497 17.4276582,31.3544374 C16.5877329,31.5994977 16.2150899,32.554654 15.7872407,33.2261578 C15.728091,33.2859757 15.6097917,33.2628204 15.5900751,33.1701991 C15.7754107,32.8170808 15.8956817,32.4485255 16.0041228,32.0818999 C16.0041228,31.5859904 16.684344,31.3139156 16.6981456,30.8508096 C16.6173077,30.7543291 16.4990084,30.7408219 16.4102839,30.7138073 C15.4895207,30.7736252 14.8388743,31.4296921 14.1409082,32.0047155 C13.9930341,32.1243513 14.0186656,32.3906373 13.7781236,32.3809892 C13.7150306,32.3404674 13.758407,32.253635 13.7406621,32.1803099 C13.8569898,31.0688553 14.9749186,30.5806643 15.8247021,30.0751069 C15.9548314,29.9419639 15.8128722,29.7547918 15.7083745,29.6583114 C14.9847768,29.4865762 14.6850852,30.414718 14.0324672,30.5073392 L13.8826213,30.5111984 C13.8964229,29.9689784 14.5588992,29.7065516 14.903939,29.2974746 C15.0656147,29.1778389 15.3317882,29.1566132 15.3416465,28.9212009 C15.2765819,28.7784099 15.126736,28.708944 14.9650603,28.7417473 C14.4938346,28.9366378 14.0541554,29.1662612 13.5967313,29.339926 C13.53561,29.3129115 13.5198367,29.251164 13.5198367,29.1971349 C13.8254433,28.9385674 14.1645681,28.7957764 14.4524298,28.5391384 C14.5983323,28.4484468 14.8092995,28.4716021 14.9532304,28.3789809 C15.0222383,28.1590055 14.8369027,27.9621854 14.6811419,27.8058871 C13.9674025,27.3466403 13.1156473,27.2231453 12.2067141,27.2829632 C12.0884147,27.2868224 12.0095485,27.1594682 12.03518,27.0533397 C12.8613037,26.2544818 14.2118878,26.6076002 15.2174322,26.7407431 C15.3909379,26.6770661 15.3554481,26.4879644 15.4264277,26.3548214 C15.6452815,25.6215701 14.6890285,25.6215701 14.3735636,25.1005758 C14.233576,24.8574451 13.8964229,24.6702731 13.9338844,24.3711837 L14.1271066,24.3673245 C14.4662314,24.6934284 14.9118256,25.0465468 15.2943268,25.3822987 C15.5033223,25.4363277 15.8069572,25.5443858 15.8858235,25.2356484 C16.0001795,25.0986462 15.9331432,24.88253 15.8109005,24.7860496 C15.1937723,24.527482 14.903939,23.8926408 14.5786158,23.3928722 C14.5549559,23.2500811 14.4011668,23.0494018 14.5924174,22.9432733 C14.7107167,22.8641594 14.8447893,22.9181884 14.9374571,22.9876543 C15.3574198,23.5163671 15.9568031,24.1106866 16.6389959,24.0450799 L16.6311093,23.7421313 C16.3057861,23.3832241 16.20326,22.9239773 16.0534142,22.4878857 C16.094819,22.431927 16.151997,22.279488 16.272268,22.3354466 C16.5956195,22.7348756 16.7947567,23.2674476 17.2659824,23.5568889 C17.4316015,23.630214 17.6248237,23.620566 17.754953,23.487423 C17.565674,23.1709672 17.2916139,22.9780063 17.1614846,22.6422544 C16.684344,22.2196701 16.5798462,21.6388579 16.2367782,21.1525965 C16.2210049,20.6142357 15.7044311,20.3788235 15.2962984,20.1588481 L14.8763358,20.0527196 C14.6180489,19.9562392 14.3558187,19.5876839 14.0778153,19.8269554 C13.9752892,20.3132168 14.1645681,20.7319418 14.5036929,21.0580457 L14.4031384,21.1178636 C14.0166939,20.8785921 13.7978402,20.405838 13.3778775,20.2862022 C13.0505827,20.3691754 12.8691904,20.7956189 12.7765225,21.1043563 C12.3092402,21.9668914 13.3719625,22.111612 13.7899535,22.634536 C13.8372733,22.7541717 13.7722086,22.9027516 13.6519376,22.9934432 C13.2122584,22.786975 13.0131212,22.4415751 12.585272,22.2486142 C12.3565599,22.1251193 12.2619204,22.3373762 12.1455928,22.4840265 C12.0371517,22.8795963 11.8439294,23.3812945 12.1258762,23.7672162 C12.6483649,23.8270341 12.9441133,24.2264631 13.3423877,24.5660742 L13.3423877,24.6355401 C12.8435588,24.8304306 12.522179,24.0470095 12.0016619,24.1492787 C11.7966097,24.3325916 11.8813909,24.6220329 11.9622288,24.8516563 C11.4890314,25.9457444 11.6901403,27.1498202 11.6999986,28.4175731 C11.7768931,28.5468568 11.7532333,28.7263104 11.9346256,28.8092836 C12.4097946,28.7031551 12.8179273,28.4580948 13.3719625,28.487039 C13.4587154,28.4831798 13.5513832,28.5970267 13.4961768,28.6761406 C13.0880441,28.9925964 12.4571143,28.8498054 12.0036335,29.0794288 C11.5619827,29.295545 11.6980269,29.8339058 11.6960553,30.2564901 C11.7670349,30.5787347 12.1061596,30.4764655 12.3052969,30.6192565 C12.3112118,30.8816833 12.2284023,31.0418408 12.0391233,31.2405905 C12.03518,31.5300318 12.041095,31.8098251 12.1850259,32.0394485 C12.3427583,32.3983557 12.3467016,33.0235489 12.8849636,33.0370561 Z M26.6924679,35.1094558 C26.0674531,33.230017 26.5840268,31.1556877 26.3908046,29.2434456 L26.3119384,29.0273294 C25.7303,28.9810188 25.312309,29.4904355 24.7957352,29.6795371 C24.0997408,30.2680677 24.6084279,31.3351413 24.5887114,32.120492 C24.6498327,34.2488504 25.3970902,36.0819786 26.5761402,37.7086387 C26.9941312,37.65268 27.0532809,37.1972924 27.2839646,36.9445137 C27.7078705,36.1996847 28.2697924,35.5879988 28.5142777,34.7794928 C29.0170499,33.1701991 29.170839,31.3582966 29.0131066,29.5849863 C28.8198843,29.1662612 28.3269704,29.1199506 27.922781,29.0331182 C27.6487209,29.0562735 27.6920973,29.3592221 27.5935145,29.5386757 C27.390434,30.8373023 27.2405882,32.1571546 27.1479203,33.4905142 C27.0769407,34.0462415 27.1360904,34.6444201 26.9132933,35.1268223 C26.8225972,35.1654145 26.7673908,35.1654145 26.6924679,35.1094558 Z M31.8187725,40.6783064 C31.8798938,40.7805756 31.8976387,40.8731968 31.799056,40.9619588 C30.7915399,40.7149689 30.1192054,39.6710507 29.6341781,38.8664039 C29.4784173,38.7139648 29.6617813,38.3415503 29.3344864,38.3511984 C29.0683129,38.9570955 29.0919728,39.6710507 29.2575919,40.3232584 C29.7189593,41.1993007 30.6200059,41.9576369 31.609777,42.0734134 C32.1500107,42.1930492 32.6212363,41.9730738 32.9505028,41.5736448 C33.1969598,41.4019096 33.1417534,41.0121287 33.0845754,40.7361946 C32.737564,39.9122517 31.7970843,39.4568641 31.0853166,39.0111245 L30.1034321,38.1061381 C30.0245659,38.0636867 29.8747201,38.0675459 29.8175421,38.1871816 C29.9259831,39.2639032 30.8349164,40.1997634 31.8187725,40.6783064 Z M31.3909232,31.6380899 C31.4816194,31.6110754 31.5269675,31.6805413 31.5920321,31.7191334 C31.3928949,33.0505634 29.9102099,33.7548706 30.1192054,35.1885698 C30.487905,35.1210335 30.728447,34.6733643 31.1168631,34.6926604 C31.1582679,35.1750625 30.602261,35.5108144 30.3636907,35.9295395 C30.3972088,36.0433864 30.5786011,36.0954858 30.6850705,36.1958255 C31.5092226,36.3270389 32.0494562,35.5243217 32.4832205,35.0322715 C32.560115,34.9859609 32.7060175,34.9550871 32.7671389,35.0554268 C32.6606695,35.4374893 32.5108236,35.8658624 32.5522284,36.2556434 C32.5975765,36.301954 32.6448962,36.3579126 32.7060175,36.3849271 C32.9761344,36.4775484 33.1949881,36.3251093 33.3684938,36.1456557 C33.7056469,35.5069552 33.9106991,34.8045777 33.9599905,34.0597487 C34.0704032,33.7645186 33.8338046,33.3284271 34.1275812,33.1084517 C34.409528,33.1875656 34.4805076,33.5464728 34.5790904,33.7896035 C34.6757015,34.6212648 34.7742843,35.4201228 34.7269645,36.2247696 C35.2435383,37.0988823 35.8468649,35.9449764 36.5132845,36.1417965 C37.1166112,36.390716 37.3098334,35.5069552 37.9171033,35.7925373 C38.4395921,35.2966279 37.8224639,34.6888011 37.7771158,34.1330739 C37.6765614,33.8339845 37.2388538,33.505951 37.5267155,33.2222986 C38.2621431,33.0254785 38.4415637,33.9246761 38.7964617,34.3260347 C38.9364493,34.5093475 38.9009595,34.7852816 39.0981251,34.9550871 C39.5555492,34.8528179 39.8591841,34.393571 40.2988633,34.2469208 C40.8430403,33.8378437 40.3836445,33.1258181 40.4999722,32.5372875 C40.3185799,31.9448977 40.2219688,31.2193648 39.6561036,30.7543291 C39.1829062,30.4012107 38.6446443,30.1986018 38.1280705,29.9689784 C37.976253,29.9728376 37.7790874,29.8030321 37.6765614,30.0095002 C37.7061362,30.459099 37.8973868,30.8315135 38.0610342,31.223224 C38.0925807,31.3235637 38.1773619,31.5551167 38.0137145,31.6052865 C37.6450149,31.3525078 37.8086623,30.823795 37.3571531,30.6636375 C37.2211089,30.5768051 37.0298583,30.6732856 37.02,30.8334431 C37.1225261,31.2386609 37.5799502,31.5184541 37.6489582,31.9545457 C37.6824763,32.0510261 37.7337394,32.2246909 37.6292416,32.3173121 C37.2782869,32.0780407 36.9845102,31.5898497 36.6473571,31.3968888 C36.4955396,31.2811123 36.2727426,31.346719 36.1465566,31.4702139 C36.1347267,31.5859904 36.0617754,31.7056262 36.1544432,31.8021066 C36.1997913,32.342397 36.2885158,32.7476149 36.1406416,33.2628204 C36.012484,33.5155991 36.0992369,33.9806348 35.714764,34.0346638 C35.4564771,33.8648583 35.5649182,33.4827957 35.480137,33.2068617 C35.2060769,32.8942651 35.4840803,32.3057345 35.0601743,32.0857591 C34.4824792,32.2053948 33.8495778,32.0452373 33.3034292,32.164873 C32.8124869,32.687797 32.6094064,33.3689488 32.1618406,33.9343242 C32.0770594,33.994142 31.9567884,33.9709867 31.9094687,33.8706471 C32.027768,33.4577108 32.3471762,33.1123109 32.3787227,32.6627121 C32.5758883,32.2767903 32.5936332,31.9101647 32.5522284,31.4914396 C32.0750877,31.0630665 31.5230242,30.5864532 31.0340536,30.1773761 L30.7185887,30.1850946 C30.665354,30.2873638 30.5943744,30.4108588 30.6298642,30.5536498 C30.6062043,30.8295839 30.9177259,30.7331034 31.0537701,30.8797537 C31.0892599,30.9897414 31.0182803,31.0688553 31.0064504,31.1556877 C30.8349164,31.4489882 30.5904311,31.7943882 30.7185887,32.1243513 C30.9709606,32.0298004 31.1878427,31.8368396 31.3909232,31.6380899 Z M31.381065,25.3109031 C30.8625195,26.2892147 30.6278925,27.5338123 30.9788472,28.6915775 C31.4027532,29.2936154 31.678785,30.0577404 32.4497023,30.3973515 C32.9465595,30.5768051 33.4631333,30.8662464 34.0092819,30.7195962 C35.422959,30.6925816 36.6394705,29.8551315 37.254627,28.6240412 C37.7100795,27.4739944 37.3689831,26.0557321 36.6690453,25.094787 C35.9691076,24.197519 34.9044136,24.1299827 33.8614077,24.0701648 C32.9485312,24.3036474 31.9824199,24.473453 31.381065,25.3109031 Z M41.657334,40.6976025 C41.7874633,41.0140583 41.4522819,41.2764851 41.6100143,41.6045185 C41.9964588,41.9441296 42.4696562,42.252867 43.0236914,42.0174548 C43.220857,41.6160962 43.1262175,41.0372136 42.9073637,40.6609399 C42.6214736,40.5374449 42.3375552,40.4313165 41.9944872,40.4409645 C41.8623862,40.5046416 41.7283136,40.6107701 41.657334,40.6976025 Z M42.0910983,40.049254 C42.442053,39.8929557 42.5347208,39.4993155 42.5997854,39.1597044 C42.4676845,38.8567558 42.0792683,38.7815011 41.8367547,38.5711737 C41.1565335,37.7703862 40.415191,37.0081907 39.9262204,36.1302188 L39.8690424,36.1302188 C39.7428564,36.4428154 39.8631274,36.8924142 39.9301637,37.2416734 C39.9479086,37.8379225 40.4230776,38.229633 40.5453203,38.7950083 C40.9652829,39.3102138 41.4167921,39.925759 42.0910983,40.049254 Z M37.3650398,52.0051091 C37.5976951,51.3374645 37.3650398,50.5154512 37.4892541,49.8130737 C37.5405171,49.4734626 37.6469865,49.0778928 37.3689831,48.7923107 C36.962822,48.672675 36.7104501,48.1864136 36.2766859,48.1265957 C36.0972652,48.7131968 36.5053979,49.2843609 36.613839,49.8632435 C36.5882075,49.9828793 36.4699081,50.0156826 36.3634387,50.0060346 C35.6240679,49.7822 35.2415667,49.0045677 34.7663977,48.4758549 C34.6757015,48.4623476 34.5712038,48.4855029 34.529799,48.5723353 C34.5317706,49.579591 35.1705871,50.4209004 35.8015169,51.1599405 C36.3634387,51.4204377 36.6828469,52.1691258 37.3650398,52.0051091 Z M16.6606841,39.2137334 C16.569988,39.1577748 16.5364698,39.0670832 16.4911217,38.993758 C16.4852068,38.2952397 16.6311093,37.6603985 16.7730685,37.0178388 C16.6311093,36.7148902 16.2486081,36.932936 16.0908756,37.0969527 C15.5190955,37.9286141 14.8270444,38.7101056 14.7540931,39.7347277 C14.6811419,40.2306372 14.9315421,40.6628695 14.9473154,41.168427 C15.1819424,41.4540091 15.5131805,41.6180258 15.9153983,41.5639967 C17.3251321,41.3478806 18.046758,40.2036226 18.6086799,39.0227022 C18.7151493,38.5364408 18.997096,38.1235045 18.9359747,37.5716365 C18.8847117,37.3979717 18.705291,37.3285058 18.5120687,37.3651683 C18.1492841,37.7240755 17.8949405,38.1563079 17.5755323,38.4689045 C17.2403509,38.6985279 17.090505,39.1133938 16.6606841,39.2137334 Z M19.6398558,46.3745111 C19.3894555,46.5115133 19.1272253,46.7970954 18.8571085,46.6793893 C19.2060915,45.8515871 19.7482968,45.102899 19.7798433,44.1554612 C19.6694306,44.0261774 19.4959249,44.1323058 19.409172,44.2519416 C19.003011,45.1106174 17.9619768,45.679852 17.2028894,46.1950575 C16.9485458,46.6137826 16.7099755,47.0595222 16.7395503,47.597883 C16.9919223,48.0436226 17.0274121,48.7421409 17.6879167,48.8386213 C18.5692468,49.0045677 19.529443,48.6668862 20.0617901,48.0243265 C20.9372052,46.9090127 21.7810738,45.7261626 21.7830454,44.3117595 C21.7633289,44.2422935 21.6410862,44.1554612 21.5839082,44.2191382 C21.0101564,44.9234454 20.4245747,45.7956285 19.6398558,46.3745111 Z M21.796847,41.0873834 C21.6115114,40.8770561 21.9782393,40.7072505 21.911203,40.4428941 C22.0157008,39.9006741 22.14583,39.3410876 22.2325829,38.8297413 C21.8954298,38.9262217 21.7988187,39.2349591 21.5385601,39.5051043 C20.732153,39.979788 20.5349874,40.8191678 20.5014693,41.6932805 C20.4876677,42.2046268 21.0436746,42.3377698 21.4084308,42.5577452 C21.6785477,42.5944078 22.0216157,42.6001966 22.2562428,42.430391 C23.4333212,41.523475 24.064251,40.2190595 24.064251,38.7757123 C24.0208745,38.7486977 24.0189029,38.6483581 23.9301784,38.6888799 C23.7763892,39.0477871 23.3643132,39.2484664 23.3643132,39.6575434 C22.9482939,40.2229187 22.5480478,40.8616192 21.796847,41.0873834 Z M24.7223661,57.4470577 C26.2068079,57.7729533 27.7089052,57.9280266 29.1908558,57.8456607 C29.2601806,57.8418077 29.3294582,57.8373118 29.3986851,57.8321829 C29.7343254,56.5732907 29.4626587,55.0436653 29.3167415,53.7745602 C29.2181587,53.4986262 28.9736735,53.2690028 29.0091633,52.9197436 C28.9283254,52.661176 28.9283254,52.207718 28.6128605,52.1884219 C28.4630146,52.6438096 28.5990589,53.1956776 28.4354115,53.6549245 C28.0745985,54.480797 28.4078083,55.5806739 27.8005384,56.2830515 L27.6920973,56.2290224 C27.6447776,55.6771544 27.7630769,55.0886237 27.7433603,54.5058819 C27.7256154,54.4190495 27.6368909,54.2897657 27.5185916,54.3225691 C27.3726891,54.4402752 27.4200088,54.6756875 27.3687458,54.8493523 C27.1991834,55.7003097 27.2287582,56.6188034 26.7299294,57.3366178 C26.5800835,57.3829284 26.3789747,57.5334379 26.256732,57.3501251 C26.5051606,56.7712425 26.7062695,56.1827118 26.7358443,55.511208 C26.6569781,54.9323254 26.8994917,54.1508339 26.3908046,53.681939 C26.2744769,53.6433468 26.079283,53.6163323 25.9787286,53.7224608 C25.7441015,53.9057736 25.8900041,54.2781881 25.7204417,54.5309668 C25.6317172,54.5637702 25.5824258,54.4943043 25.5370777,54.4344864 C25.2275278,53.5121335 25.4522965,52.5878509 25.4798997,51.6384835 C25.4759564,51.4763963 25.5607376,51.2429137 25.4384949,51.1464333 C24.7661604,52.1845627 24.6715209,53.4291603 24.4408372,54.6293769 C24.1801937,55.6094407 24.428593,56.5549083 24.7223661,57.4470577 Z M31.2667089,50.4421261 C31.3554334,50.8183998 31.9272136,51.0036422 31.7773677,51.4493818 C31.735963,51.5825248 31.5861171,51.5728768 31.4678178,51.5728768 C30.8151998,51.1136299 30.1862417,50.6235093 29.6913561,49.9925273 C29.582915,49.8960469 29.4448991,49.7358893 29.2694218,49.7590447 C29.0288798,50.3051239 29.4902472,50.7566523 29.5355953,51.2988723 C30.2158165,52.0340532 30.8408313,52.9544766 31.8069426,53.3307502 C32.4635039,53.4445972 33.1003487,53.2323402 33.5183397,52.8155447 C33.7470517,52.5145258 33.74508,52.020546 33.573546,51.7021606 C33.4749632,50.4517742 31.7832827,50.1623329 31.3593768,49.0219341 C31.2647373,48.9119465 31.0005354,48.4526996 30.9394141,48.8482694 C31.0596851,49.3808414 31.0005354,49.9828793 31.2667089,50.4421261 Z M24.710954,49.4985475 C24.6853225,49.1512179 24.8805164,48.7498593 24.6222295,48.4777845 C24.5157601,48.4835733 24.3954891,48.460418 24.3402827,48.5800538 C24.1588904,49.4560961 23.703438,50.2433764 23.2381273,51.0152199 L23.2420706,51.1753774 C22.9384356,51.4185081 22.8477394,51.9028399 22.449465,52.030194 C22.2227246,51.9202063 22.1103402,51.675146 22.1931498,51.4551706 C22.5224163,50.5096624 22.7452134,49.4966179 22.5894526,48.4083186 C22.5717077,48.2346538 22.3784854,48.3581488 22.3055342,48.4179666 C21.5957381,49.5024067 20.8248208,50.6061428 20.428518,51.8372332 C20.3890849,52.4392711 20.2648706,53.2439179 20.7696144,53.6857982 C21.0890226,53.9115624 21.4656089,54.0176909 21.8559967,54.0775088 C22.9502655,53.8420965 23.8927169,52.9776319 24.1273439,51.8796845 C24.1490322,51.6867237 24.3343678,51.4069304 24.1687487,51.2641394 L24.3402827,51.0711785 C24.4270356,50.5289585 24.6202578,50.0407675 24.710954,49.4985475 Z M18.7506391,43.5321976 C19.4584634,42.4033765 19.9139159,41.133694 19.706892,39.6826283 C19.6871755,39.5533445 19.5018399,39.4240608 19.421002,39.6035144 C19.2100348,40.4988528 18.9517479,41.3826135 18.5140404,42.1814715 C18.3701095,42.3339106 18.2005472,42.687029 17.98958,42.5770413 C18.1374542,41.9750034 18.4154576,41.3961208 18.2774417,40.7439131 C17.9935233,40.7516315 17.8417058,41.079665 17.6386253,41.2899923 C17.4868078,42.2277821 16.5226682,42.8664826 16.7060322,43.9432042 C16.7572952,44.116869 16.9682624,44.1863349 17.1319098,44.2365047 C17.806216,44.3735069 18.3168748,43.9972332 18.7506391,43.5321976 Z M16.5482997,50.5926356 C15.9153983,51.4706075 16.2821262,52.7171347 16.3609925,53.7398273 L16.5897045,53.9501546 C17.5341276,54.1122417 18.2892717,53.4310899 18.7585257,52.7190643 C19.1370836,51.8912622 19.604366,51.1001227 19.6792889,50.1681217 C19.649714,50.112163 19.5866211,50.0986558 19.529443,50.0986558 C18.9478046,50.5212401 18.579105,51.1502925 18.1315392,51.7118086 C17.932402,51.9221359 17.7332648,52.2829728 17.4217432,52.3234945 C17.2028894,52.0938711 17.5104677,51.8217963 17.4868078,51.5458623 C17.7076332,50.9804869 18.0309848,50.3591529 17.8771956,49.7204525 C17.8417058,49.5911687 17.7096049,49.5969575 17.5913056,49.6008167 L16.5482997,50.5926356 Z M32.9406446,46.8646317 C33.6543839,47.2100316 34.6402117,47.2987936 35.3381778,46.8935758 C35.9079863,46.5269502 35.8527799,45.7859805 35.8113751,45.2437604 C35.6733592,44.2287863 34.5574022,43.7965539 33.7135336,43.5109719 C33.4434167,43.4048434 33.2501945,42.8857787 32.972191,43.1385574 C32.8046003,43.8737383 33.4867932,44.3059706 33.6405823,44.9273046 C33.8101447,45.156928 34.0566016,45.4000587 34.0644883,45.6624855 C33.9954803,45.8091358 33.8219746,45.9191235 33.6681855,45.8322911 C33.5025664,45.7377402 33.4966514,45.5756531 33.3763804,45.4656654 C32.7513656,45.1762241 32.4930787,44.4738466 32.033683,44.0319662 C31.9390435,43.9451338 31.9331285,43.7560322 31.8010276,43.7888355 C31.6314652,44.0145997 31.7635662,44.3445628 31.7399063,44.6262857 C31.9745333,45.4502286 32.1618406,46.3185524 32.9406446,46.8646317 Z M35.3125463,41.1433421 C35.1705871,41.4520794 35.4643637,41.7222247 35.4722504,42.0406101 C35.1232673,42.3030369 34.8669521,41.710647 34.535714,41.6045185 C34.4430461,41.5620671 34.2793987,41.4810236 34.226164,41.6411811 C34.0920914,42.1698939 34.3424917,42.6001966 34.6816165,42.9552446 C35.062146,43.2350378 35.4407039,43.850583 35.9888241,43.8370757 C36.2668276,43.6672702 36.3023174,43.3450255 36.4442766,43.0922468 C36.665102,42.5056458 36.3200623,41.976933 35.8941847,41.621885 C35.6812459,41.49839 35.5235134,41.2533298 35.3125463,41.1433421 Z M35.8448933,40.734265 C36.3318922,41.1433421 36.962822,41.2726258 37.558262,41.266837 C38.0945523,40.85776 38.1773619,40.0801277 38.1714469,39.42792 C38.033431,38.7583458 37.437991,38.283662 36.8602959,37.9208956 C36.6631304,37.8051191 36.6690453,37.475156 36.3851269,37.5349739 C36.2451394,37.864937 36.481738,38.1910408 36.5330011,38.5132855 C36.6039807,38.8027268 36.9845102,39.08252 36.7262233,39.3545948 C35.8448933,39.3642429 35.2494533,38.4631157 34.7861142,37.8610778 C34.7230212,37.8051191 34.6204951,37.8244152 34.592892,37.8977403 C34.7328795,38.9609547 35.2494533,39.8601523 35.8448933,40.734265 Z M29.5553119,48.0937924 C31.2115026,45.7203738 29.6243198,42.9127932 28.8474875,40.6107701 C28.7567913,40.5548114 28.7824229,40.4081612 28.6601802,40.3985131 C28.3210554,41.4289241 28.6522936,42.4670536 28.3683752,43.5283383 C28.2303593,43.850583 28.277679,44.3464924 27.8320848,44.4622689 C27.4791585,43.5109719 27.7433603,42.4940681 27.6230894,41.479094 C27.561968,41.4057688 27.5442231,41.3170068 27.4239521,41.3498102 C26.7989373,42.82982 26.7851357,44.8443314 27.384519,46.3610038 C27.3746607,46.5308094 27.4653569,46.6465859 27.276078,46.7565736 C27.0729974,46.8337579 26.8423137,46.6774596 26.731901,46.4941468 C26.1798374,45.502328 26.3651731,44.1419539 26.1798374,43.0247105 C26.1167445,42.9108636 26.0201333,42.7217619 25.8584576,42.8317496 C25.5863691,43.1578535 25.9294372,43.6595517 25.610029,43.9451338 C25.4306083,43.9644299 25.3399121,43.8119908 25.2018963,43.7386657 C24.7701037,42.7333396 25.0796536,41.6431107 25.0757103,40.5625299 C24.7957352,40.1052126 24.5611082,40.7844349 24.4487238,40.9638885 C24.1411455,42.0946391 23.880887,43.37204 24.0208745,44.5761158 C23.8315956,45.7493179 24.3264812,46.700615 24.6833508,47.6654193 C24.5808247,48.1671175 25.2117545,48.3234158 25.13486,48.805818 C25.5390494,49.2920794 26.1266027,49.4483777 26.6944396,49.5641542 C27.859688,49.614324 28.8810056,48.9428202 29.5553119,48.0937924 Z M24.8686865,26.2023823 C24.9475527,26.2429041 24.8765731,26.3953432 25.008674,26.3451734 C25.3497704,25.725769 25.8091662,25.1410976 25.8604292,24.4117055 C25.6888952,24.1261234 25.4286367,24.4059167 25.3280822,24.5853703 C24.8154518,24.7879792 24.3461977,25.0967166 23.8769437,25.3861579 C23.880887,25.459483 23.8651137,25.5057936 23.8532838,25.5501746 C23.8710287,25.6331478 23.9341217,25.7469947 24.0090446,25.7662908 C24.2140968,25.6833176 24.4960435,25.6331478 24.7306706,25.5540338 C24.9771275,25.6871768 24.8193951,25.9862662 24.8686865,26.2023823 Z M23.4609243,24.473453 C23.8493405,24.4329312 24.2121251,24.6297513 24.53942,24.5004675 C24.5492782,24.4406496 24.5197034,24.4001279 24.5019585,24.3538173 C24.0504494,24.251548 23.709353,23.8386117 23.1632043,23.9582475 C22.8832292,24.0817424 22.4021453,23.9775436 22.2937042,24.3171547 C22.6012825,24.5969479 23.0764515,24.5139748 23.4609243,24.473453 Z M24.7464438,21.4266009 C24.8509416,20.9847206 24.5611082,20.7145754 24.4290073,20.3807531 C24.1805786,20.0237755 23.6994947,19.8616883 23.2834753,19.8906325 C22.9384356,20.3093575 22.5046714,20.7319418 22.6407156,21.3243317 C22.8713993,21.5230814 23.0035002,21.9726802 23.3445967,21.9186511 L23.33671,21.6697316 C23.5082441,21.3899384 23.5693654,21.0213831 23.8473688,20.7917597 C24.0681943,20.7319418 24.1924086,20.8824513 24.3304245,20.9982278 C24.5137884,21.1236524 24.4921002,21.4169529 24.7464438,21.4266009 Z M23.03899,22.7175091 C22.8871726,22.5477036 22.6604322,22.5380555 22.4888981,22.3952645 C22.0255591,22.2949248 21.4537789,22.1347673 20.9687516,22.3547427 C20.4186597,22.36825 20.0755916,22.8738074 19.4446618,22.7310164 C19.3717106,22.7696086 19.2691845,22.8429337 19.2889011,22.9297661 C19.6240825,23.2230666 20.1722028,23.0918532 20.5862505,22.9760767 C21.2290102,23.0030912 22.0018992,22.5573516 22.5105863,23.0397538 C22.3232791,23.1999113 22.1024536,23.2693772 21.8954298,23.3793649 C21.619398,23.4990006 21.0574761,23.2423627 21.0121281,23.6514397 C21.195492,23.807738 21.4340624,23.8444006 21.6884059,23.807738 C22.1596316,23.5723258 22.8280229,23.5260151 23.3524833,23.6688062 C23.5476772,23.7247648 23.8158224,23.7016095 23.9124335,23.4951414 L23.8217373,23.3793649 C23.5457055,23.1806152 22.9206907,23.2134185 23.03899,22.7175091 Z M21.6154547,21.6793797 C21.8264218,21.702535 22.0235874,21.8723405 22.2424412,21.7623528 L22.2404695,21.6330691 C21.8402234,21.1931183 21.207322,21.0503273 20.554704,21.1004971 C20.3851416,21.3494166 20.0539034,21.2895987 19.7719567,21.312754 C19.4663501,21.5848289 18.9852661,21.4227417 18.7131776,21.7681417 C18.6402264,21.8260299 18.4470041,21.7893674 18.4962955,21.9321584 C18.527842,22.0614422 18.6895177,22.0151316 18.7545824,22.101964 C19.7660417,22.1849371 20.5882221,21.6658724 21.6154547,21.6793797 Z M18.9773795,24.4097759 C17.6898883,24.739739 16.6665991,25.8511936 16.437887,27.111228 C16.0060945,28.0991876 16.6015344,29.1025841 17.2817556,29.828117 C18.2005472,30.5594387 19.3933988,31.1518285 20.554704,30.636623 C21.5346168,30.5497906 22.2542711,29.6544522 22.569736,28.8131428 C23.0547633,27.5859117 22.7846465,26.1194092 22.0827371,25.0619836 C21.2566134,24.3596061 20.0716483,24.0701648 18.9773795,24.4097759 Z M15.2233472,43.184868 C14.9946351,43.5476344 14.5983323,43.8640902 14.3006123,44.2403639 C14.176398,44.6803147 13.8471315,45.0527292 13.7110873,45.4946095 C13.6712391,47.5269842 13.8088974,49.5471341 13.9555066,51.5401978 C14.0627908,52.9986627 15.7325133,53.7755443 15.6689427,52.4928816 C15.6279764,51.6663051 15.5813346,50.8419034 15.5210672,50.0388379 C15.3593914,47.6943634 15.2627803,45.5370609 15.3436182,43.2446859 C15.3120717,43.2176714 15.2805252,43.1713607 15.2233472,43.184868 Z M38.7254821,39.9720696 C39.052777,40.9503812 39.3997884,41.9151855 40.2259121,42.6658033 C40.9633113,43.3913361 41.6100143,44.1593204 42.6983682,44.1130098 C43.0650962,43.9991629 43.2642334,43.6460445 43.329298,43.2909965 C42.9941166,43.0382177 42.5347208,43.1115429 42.252774,42.7391284 C41.3517274,42.4902089 40.6695346,41.6643364 39.9222771,41.1124683 C39.585124,40.7323354 39.407675,40.2537925 38.9758824,39.9315478 C38.9187044,39.9026037 38.7668869,39.8659411 38.7254821,39.9720696 Z M43.2464885,38.2527883 C43.2957799,36.9695986 42.6963966,35.9642725 42.2902355,34.8836916 C42.2291142,34.8142257 42.1364464,34.6540682 42.0023738,34.6907308 C41.7184554,35.103667 41.8111232,35.7153529 41.8564713,36.2247696 C42.0122321,36.8731181 41.663249,37.7607381 42.4814861,38.1138565 C42.6924532,38.2566475 43.0079181,38.3492687 43.2464885,38.2527883 Z M42.4834577,30.7755548 C42.4617695,30.513128 42.5899272,30.2931527 42.6392185,30.05967 C42.7496313,29.660241 42.5859838,29.2685305 42.2665756,29.0485551 C41.7933783,29.029259 41.422707,28.708944 41.0264042,28.4735317 C40.7405142,28.363544 40.4329359,28.5931674 40.174649,28.4368691 C39.6008972,28.7166624 38.9127894,28.0683139 38.4060739,28.5738714 C38.273973,28.6992959 38.2779163,28.8594534 38.2996045,29.0157517 C38.6584458,29.4479841 39.1769913,29.4479841 39.5732941,29.7567215 C39.8729857,30.3433225 40.5275754,30.7620476 40.3895595,31.5396798 C40.529547,31.7693033 40.6715062,31.9989267 40.6636196,32.2748607 C40.9140199,32.5778093 40.9100766,32.9830271 41.2334281,33.2493131 C41.2945494,33.2493131 41.3675007,33.2435243 41.4266503,33.2165098 C41.6238159,32.9174204 41.9866005,32.6009646 42.0201187,32.1494362 C41.4187637,31.4644251 41.3162376,30.5787347 40.7148827,29.8975829 C40.6517897,29.8107505 40.7523441,29.7644399 40.7799473,29.6911148 C40.9002183,29.6583114 41.1348453,29.5753382 41.2176548,29.7644399 C41.3201809,30.2429828 41.8485846,30.4455917 42.1285597,30.8450207 C42.264604,30.8720353 42.3868466,30.9395716 42.4834577,30.7755548 Z M41.4739701,23.6881023 C41.5134032,23.0301057 41.2846911,22.3489539 40.6360164,22.0537238 C40.0977545,22.0402165 39.7113099,22.5322667 39.3051489,22.8622298 C39.173048,22.8525817 38.995599,23.0320353 38.9009595,22.8429337 C39.0232021,22.4608712 39.2972623,22.0884567 39.585124,21.8318188 C39.8473542,21.6485059 40.2337987,21.5385182 40.3560413,21.2297809 C40.1608474,20.5910804 39.7822896,21.4323898 39.4747113,21.0927786 C39.2341693,21.0001574 39.0291171,21.179611 38.8575831,21.2992468 C38.6052111,21.3957272 38.4731102,21.9109327 38.1655319,21.6851685 C38.3390376,21.0098055 39.0665786,20.8399999 39.5476625,20.4772335 C39.7507431,20.3981195 39.9557952,20.361457 40.0997261,20.1877922 C39.9281921,19.8115185 39.4569664,20.0450012 39.0941817,19.9388727 C38.3607259,20.716505 36.9825386,20.5563474 36.5862358,21.6446467 C36.3516088,22.2775584 35.9237595,22.9046812 35.4446472,23.4005906 C35.4032424,23.5067191 35.3756392,23.6630174 35.4880236,23.7498498 C35.6220962,23.8598374 35.8448933,23.8849224 36.0223423,23.8193157 C36.6374988,23.4372532 37.0653481,22.8583706 37.7120512,22.5322667 C37.7889457,22.5727885 37.7889457,22.634536 37.8244355,22.688565 C37.62727,23.1343046 37.1619592,23.5105783 37.1323844,23.9794732 C37.4991123,23.8115972 37.8638686,23.5626777 38.1556737,23.2906029 C38.3764991,23.2732364 38.5795796,23.0609795 38.80632,23.2172778 C38.8575831,23.3311247 38.7077372,23.3774353 38.6663325,23.4700565 C38.0176578,23.6572285 37.7534559,24.295929 37.6036101,24.8574451 C37.6095251,24.9539255 37.7159945,25.0407579 37.8185206,24.9944473 C38.4888835,24.5641446 39.3051489,23.9157961 40.1707057,24.4117055 C40.2022522,24.4850306 40.1293009,24.5448485 40.0839529,24.5911591 C39.3169788,24.7609647 38.3784708,24.8767412 38.033431,25.67174 C37.9979412,25.9110114 37.9585081,26.2274672 38.2207383,26.3837655 C38.4750819,26.435865 38.7057656,26.2699186 38.9285627,26.1734382 C39.1829062,26.1965935 39.6679335,26.0480136 39.7527147,26.3663991 C39.5634358,26.5632192 39.2913473,26.3934136 39.0685502,26.4165689 C38.8654697,26.667418 38.4593086,26.5632192 38.3212927,26.9028303 C38.2503131,27.3717252 38.3843857,27.8637754 38.7629436,28.1493575 C39.3130355,28.0837508 39.7369415,28.309515 40.2298554,28.3828401 C40.9889428,27.776943 41.6257876,28.6452669 42.3710734,28.6221116 C42.7141415,28.1030468 42.4499396,27.367866 42.6116154,26.7793353 C42.5997854,26.4300762 42.1048999,26.267989 42.1975677,25.9148706 C41.9373091,25.6427958 41.6021277,25.947674 41.2886344,25.9148706 C40.8607852,25.9843366 40.8607852,26.5960225 40.3994178,26.5670784 C40.2791468,26.5111197 40.289005,26.391484 40.2870334,26.2911443 C40.7148827,25.725769 41.2886344,25.4768495 41.9629407,25.4401869 C42.1817944,25.3745802 42.2212276,25.1816194 42.138418,24.9983065 C42.0418069,24.6625546 41.7105687,24.5699334 41.4641118,24.3731133 C41.251173,24.1743637 41.4325653,23.9042184 41.4739701,23.6881023 Z M34.581062,17.9783903 C34.1472978,18.3739601 33.8180313,18.852503 33.3704655,19.1921141 C33.2403362,19.439104 32.7710822,19.5548806 32.9130414,19.8906325 C33.0786604,19.9543095 33.224563,19.8481811 33.390182,19.8443219 C34.0585733,19.3580605 34.7920292,18.9567019 35.4150724,18.354664 C35.5156268,18.3372975 35.708849,18.2601132 35.7620837,18.4202707 C35.4840803,19.2152694 35.0936925,20.0141274 34.409528,20.6451094 C34.2360223,20.8284223 34.0940631,20.9461284 34.0526583,21.1815406 C34.4824792,21.0483977 34.890612,20.8515776 35.2257934,20.4926704 C35.5767481,20.2746246 35.8803831,19.917647 36.2490827,19.7285453 C36.4718798,19.838533 36.2431677,20.05079 36.2313378,20.2109475 C36.0045974,21.0059463 35.0266562,20.7840413 34.5041675,21.2259216 C34.3484067,21.4787004 34.6461267,21.4825596 34.6973897,21.6851685 C33.9146424,21.9572433 32.926843,21.7816489 32.3668928,22.5129706 C32.3530912,22.5862957 32.3688644,22.6287471 32.4299858,22.6692689 C32.5187103,22.6692689 32.6271513,22.678917 32.7119325,22.6326063 C32.7592522,22.678917 32.8617783,22.6615505 32.8657216,22.7483829 C32.3806944,22.9509918 31.8325741,23.0571202 31.3140287,23.2037705 C31.0498268,23.3812945 30.4662168,23.3137582 30.5431113,23.8096676 C30.3025693,24.2090966 29.3916644,24.2226039 29.7505058,24.8207825 C29.6065749,24.9732216 29.4843323,25.2530149 29.2299887,25.2298596 C28.9105805,25.050406 28.9559286,24.6413289 28.5793423,24.4483681 C28.1909262,24.3885502 28.4294965,24.9037557 28.2875373,25.1102238 C28.3782335,25.6350774 28.5773707,26.1406349 29.0426814,26.480246 C29.829372,26.746532 29.2142154,25.7585723 29.657838,25.4691311 C30.2079299,25.0889981 30.9394141,25.0928574 31.5092226,24.7435982 C31.3554334,24.5139748 30.9689889,24.6104552 30.7540785,24.4136351 C31.1878427,24.0373614 31.8976387,24.207167 32.4102692,23.9717547 C32.5423701,23.8540486 32.8243169,23.8752743 32.8302318,23.6552989 C32.5916615,23.5742554 32.3866093,23.7382721 32.148039,23.7344129 C32.0750877,23.7209056 31.9390435,23.6668766 31.9784766,23.5511001 C32.4930787,23.2886733 33.1831582,23.4256755 33.630724,23.0030912 C33.6524122,22.7136499 33.2856843,22.8699482 33.1180936,22.7406644 C33.1299235,22.6113807 33.275826,22.5612108 33.3645505,22.4878857 C33.9895653,22.0324981 35.0128546,22.4357863 35.6240679,21.9398768 C35.6615293,21.6870981 35.3795826,21.7237607 35.2573399,21.6002657 C35.411129,21.3011764 35.82912,21.347487 36.0933219,21.1815406 C36.3141473,21.0580457 36.6532721,20.859296 36.4639931,20.5563474 C37.0594331,19.6320649 38.0846941,19.0473935 39.2499425,19.0435343 C39.7487714,18.8679399 40.3304098,18.8679399 40.781919,18.5746394 C41.4089054,17.9861087 42.5485224,17.8394585 42.682595,16.8090475 C42.7358297,16.1375437 43.0749544,15.549013 43.2188853,14.8871573 C43.2011404,14.7540143 43.0473513,14.6710411 42.8994771,14.7173517 C42.4775428,14.9373271 42.2231992,15.4660398 41.6849372,15.4834063 L40.2416853,16.4578587 C39.10404,17.279872 37.6036101,16.7839625 36.2569693,17.156377 C35.7423672,17.5230027 35.0424294,17.4728328 34.581062,17.9783903 Z M28.106145,21.4208121 C28.4847029,21.090849 28.4235815,20.5351218 28.5418809,20.0797341 C28.3269704,19.8501107 28.1830395,19.5645286 27.9109511,19.4120895 C27.6842107,19.3426236 27.4673286,19.5413733 27.3233977,19.70539 C27.0690541,20.1800738 26.9527264,20.7686044 27.0887707,21.2915283 C27.149892,21.3745015 27.2090417,21.3706423 27.2819929,21.3108244 C27.2267866,20.9808613 27.4121222,20.6798424 27.6605508,20.4695151 C27.7926517,20.4521486 27.8222266,20.4637262 27.9148944,20.5331921 C27.9385543,20.8419295 27.9070078,21.204696 28.106145,21.4208121 Z M30.1113187,20.6682647 C30.2138448,21.090849 30.4938199,21.4439674 30.4070671,21.8993551 C30.5273381,21.9418065 30.659439,21.8491852 30.7442202,21.7623528 C30.9118109,21.391868 31.1562962,21.046468 31.2193892,20.637391 C31.014337,20.2977799 30.8211148,19.9215062 30.8092848,19.483485 C30.77971,19.0338862 30.2651079,19.2094806 30.0442825,19.3464828 C29.8471169,19.7324046 29.3818062,19.7285453 29.1550658,20.0314939 C28.9322687,20.4714447 28.7508764,20.9441988 28.752848,21.4825596 C28.7981961,21.5558847 28.8632607,21.6851685 28.9795884,21.6388579 C29.2102721,21.3667831 29.2930817,21.1043563 29.5533402,20.8477184 C29.7307892,20.7686044 29.9003516,20.4888111 30.1113187,20.6682647 Z M30.5786011,16.2648978 C30.5253664,16.5446911 30.2670795,16.8437804 30.4681884,17.0984888 C30.9847622,16.9383312 31.501336,16.3420822 32.0672011,16.7183559 C32.4812488,17.0541078 32.3215447,17.7487669 32.86375,17.9185724 C33.2147047,17.7024563 33.1417534,17.2393502 33.4611616,17.013586 C33.4059553,16.7646665 33.2994859,16.5678464 33.1871015,16.338223 C32.8262885,15.7496923 32.1697272,15.6223381 31.4973926,15.6860152 C31.1760128,15.8230174 30.5924027,15.7535515 30.5786011,16.2648978 Z M31.2883971,17.4091557 C30.6988721,17.6291311 29.8096554,17.7178931 29.715016,18.4800885 C29.6144615,18.6537533 29.7564207,18.8389958 29.949643,18.8061924 C30.3972088,18.8389958 30.6732406,18.1906472 31.1050332,18.5263992 C31.3238869,18.8717991 31.1937577,19.4873443 31.7596228,19.5240068 C32.5758883,18.9354762 31.6314652,18.2176618 31.6373802,17.5287915 C31.5604856,17.4014373 31.426413,17.4091557 31.2883971,17.4091557 Z M27.0532809,16.224376 C27.0138478,16.3845336 26.9921596,16.6180162 27.1006006,16.7492296 C27.3431143,16.8283435 27.510705,16.5601279 27.7473037,16.5099581 C28.1928978,16.3941816 28.6148321,16.5292542 28.9914184,16.6932709 C29.2181587,16.7858922 29.3344864,17.1351513 29.5395386,17.1158552 C29.6381214,16.9228944 29.8116271,16.6643268 29.7307892,16.4211961 C29.4488425,16.0950923 29.3344864,15.7053113 28.9835317,15.3965739 C28.2500758,15.4023628 27.3726891,15.5162097 27.0532809,16.224376 Z M27.9109511,17.156377 C27.51662,17.4593256 27.2879079,17.698597 26.9803296,18.0150529 C27.0335643,18.3044942 26.8955484,18.6730494 27.1420054,18.8698695 C27.4081789,18.8196997 27.51662,18.5534137 27.7216721,18.3874673 C28.1790962,18.1674919 28.3742901,18.71936 28.7390464,18.9258281 C28.9815601,19.0377454 29.0150782,18.7290081 29.1156327,18.5958651 C29.3127982,18.2504651 28.8770623,18.1211813 28.7804512,17.8741914 C28.5201927,17.6214127 28.3802051,16.9672754 27.9109511,17.156377 Z M26.8718886,24.7532462 C26.7397876,24.6432586 26.560367,24.5197636 26.3750313,24.6239625 C25.6632637,24.8458675 26.4164361,25.5810484 25.7677614,25.814531 C25.787478,26.0171399 25.9708419,26.1830862 26.1167445,26.2641298 C26.31391,25.9553924 26.3454565,25.5964852 26.6155733,25.3031847 C27.0414509,25.449835 26.7082411,25.9688997 26.8344271,26.267989 C27.3155111,26.6944325 27.143977,25.8454047 27.5205633,25.7894461 C27.6861823,25.858912 27.745332,25.9959142 27.8399715,26.1522125 C28.0055905,26.3046516 27.9543275,26.6076002 28.2343026,26.6539108 C28.2855656,26.4300762 28.10023,26.2178192 28.1120599,25.9611813 C28.3742901,25.5115824 28.094315,24.9867289 28.0075622,24.5506373 L27.9188377,24.5236228 C27.6664658,24.9018261 27.2031267,24.5602854 26.8718886,24.7532462 Z M26.491359,20.9210435 C26.6412049,20.459867 26.6964112,19.8501107 26.3888329,19.4352448 C26.1463193,19.3580605 25.9767569,19.1284371 25.7066401,19.118789 C25.4286367,19.2770169 25.1407749,19.5606694 25.1033135,19.882914 C25.0737386,20.3518089 25.2787908,20.7975485 25.5903124,21.1661038 L25.6770653,21.0927786 C25.5942557,20.8014077 25.6435471,20.4810927 25.844656,20.2553285 C26.0359066,20.1627073 26.1325177,20.405838 26.2251855,20.5216145 C26.3493998,20.6489687 26.2370155,20.9113954 26.491359,20.9210435 Z M25.014589,18.5669209 C25.2906208,17.9282205 25.9392955,18.586217 26.3927762,18.1887176 C26.3691164,17.9880383 26.4085495,17.7661333 26.2389871,17.6426384 C25.71847,17.7314004 25.4641265,17.1390105 24.9731842,17.156377 C24.5453349,17.3860004 24.4290073,17.8954171 24.1549471,18.2871277 C24.178607,18.4607925 24.109599,18.6672606 24.2338133,18.8100516 C24.3107079,18.9528427 24.419149,19.0956337 24.6123712,19.0763376 C24.8036218,18.9528427 24.9436094,18.7598818 25.014589,18.5669209 Z M25.0737386,15.3907851 C24.1470605,15.3869259 23.5595071,16.1085995 23.2262973,16.8611469 C23.2736171,17.0618262 23.4136046,17.2181245 23.5693654,17.3705636 C23.7054096,17.4593256 23.8039924,17.3396898 23.9065185,17.2470686 C24.0129879,16.8669357 24.4526671,16.6334531 24.6951808,16.3517302 C25.3813169,16.1819247 25.4956729,17.0734038 26.193639,16.9634162 C26.3671447,16.8707949 26.3493998,16.6643268 26.3434849,16.4945213 C26.0674531,16.2359537 26.0832263,15.8423135 25.8091662,15.5895348 C25.6080573,15.4042924 25.3675153,15.3541225 25.0737386,15.3907851 Z M23.514159,18.4299187 C23.0705365,18.5437656 22.7057802,18.2446763 22.2799026,18.1906472 C22.1951214,18.2041545 22.1221702,18.2832685 22.0649922,18.3565936 C21.7988187,18.8023332 21.6489728,19.2847354 21.4084308,19.7632783 C21.5227869,20.0199162 21.6805193,20.3247944 21.9348629,20.4617966 C22.2128663,20.2456805 22.277931,19.9157174 22.4474934,19.6436426 C22.6446589,19.1554516 23.159261,19.0686192 23.5989402,19.1149298 C23.6640049,18.9219689 23.5989402,18.6325276 23.514159,18.4299187 Z M20.8543956,16.0893034 C20.4600645,16.3613783 20.37134,16.801329 20.0992515,17.1872508 C20.0322152,17.5422987 20.2057209,17.8587546 20.4699228,18.1115333 C20.7518695,18.088378 20.8327074,17.73333 20.9569217,17.5268619 C21.207322,16.8611469 21.802762,17.4168742 22.2503278,17.4033669 C22.4593233,17.3802116 22.6998653,17.546158 22.873371,17.3531971 C22.873371,17.2663647 22.8694277,17.1042776 22.7314118,17.0502485 C22.3567972,17.0039379 22.2858176,16.5871425 22.0571055,16.3883928 C21.7179808,16.1085995 21.2881599,16.1028107 20.8543956,16.0893034 Z M10.7890937,16.2282353 C10.8876765,17.5326507 11.7926664,18.8061924 13.117619,19.2036918 C13.409424,19.562599 13.8609331,19.2229879 14.2532926,19.3599901 C14.7048017,19.4468225 15.1582825,19.2307063 15.5802168,19.3831454 C15.9883496,19.5452325 16.5305548,19.6880236 16.5759029,20.2109475 C16.7770118,20.4560078 16.970234,20.8728033 17.3547069,20.8322815 C17.6721434,20.4405709 17.1969744,20.0179866 16.976149,19.6725867 C16.8992544,19.5703174 16.9544608,19.4429633 17.0274121,19.3638493 C17.5932772,19.3040314 17.9402886,19.9948313 18.4923522,20.0218459 L18.4923522,19.9658872 C18.0447864,19.4371744 17.565674,18.9123209 17.1890878,18.3392271 C17.0786751,18.1829288 17.2088044,18.043997 17.3251321,17.9436573 C17.577504,17.8471769 17.8042444,18.0034752 18.0014099,18.1269702 C18.4095426,18.3025646 18.9694928,18.5360472 19.1035654,19.0280974 C19.2612979,19.3271867 19.592536,19.3773566 19.8882844,19.3677085 C20.2786722,19.4410337 20.365425,19.8636179 20.7282097,19.9562392 C20.7282097,20.016057 20.7597561,20.0893822 20.7006065,20.1163967 C20.5073842,20.1492 20.3969715,19.9388727 20.2905021,19.8230962 C20.0026404,19.7169677 20.1031948,20.0218459 19.9553207,20.1125375 C19.3165042,20.1588481 18.7861289,20.4077676 18.3050449,20.7435195 L18.236037,20.903677 C18.4055993,21.0599753 18.642198,21.0426088 18.8373919,21.0927786 C19.6280258,21.0561161 20.3397935,20.4212748 21.1402857,20.849648 C22.2030081,20.9229731 20.8110192,20.3363721 21.2625283,19.9446615 C20.789331,19.5954023 20.5882221,18.8833768 19.9454624,18.8139108 C20.0972799,18.3855377 19.5274714,18.2716908 19.3224192,17.999616 C19.1153954,17.9494462 19.0306142,18.1115333 18.8531652,18.1018853 C18.1749156,17.4631848 17.4690629,16.7993994 16.5995628,16.6353827 C15.5743019,16.259109 14.2690659,16.4829436 13.1491655,16.4327738 C12.5202073,16.2899827 12.0864431,15.7342554 11.800553,15.2016835 C11.5383228,14.9759193 11.6684521,14.3333596 11.1065302,14.4800098 C11.0020325,14.4857987 10.9448545,14.6131528 10.8600733,14.6787595 C10.8304985,15.1881762 10.7102275,15.7053113 10.7890937,16.2282353 Z M10.4578555,37.7742454 C10.4519406,38.1505191 10.3494145,38.6522173 10.5860132,38.9648139 C10.970486,39.0149837 11.3549588,38.7679938 11.5540961,38.44189 C11.4436833,37.8166968 11.4357967,37.0776566 11.2386312,36.4563227 C11.1104736,36.1668814 11.3372139,35.7481563 10.9882309,35.6555351 C10.5288351,36.2537138 10.672766,37.0815159 10.4578555,37.7742454 Z M13.7682653,36.6762981 C13.0367811,38.0405314 11.6408489,39.250396 10.4085642,40.2615109 C10.375046,40.7728572 10.7319157,41.1993007 10.9862592,41.631533 C11.5402945,41.700999 11.8794192,41.1394828 12.2914953,40.8924929 C13.0702992,40.182397 13.2221167,39.1867189 13.7623504,38.3685648 C13.953601,37.8379225 14.2079445,37.3053505 14.2158311,36.6898053 C14.1645681,36.4466746 13.8688198,36.5161405 13.7682653,36.6762981 Z M11.4633999,43.9104009 C11.9306823,43.6074523 11.9129374,43.0787395 11.8281562,42.6001966 C11.6309906,42.0946391 11.2603194,42.5866893 11.0118908,42.7564949 C10.5268635,43.0189217 10.6826243,43.7000735 10.7417739,44.1496723 C10.9823159,44.2287863 11.2287729,44.0165293 11.4633999,43.9104009 Z M12.1968558,43.6306076 C11.6250757,44.3792958 10.7950087,45.014137 10.0083181,45.5486386 C9.93931011,45.768614 10.0359212,45.9982374 10.1325324,46.1873391 C10.2113986,46.3590742 10.3947626,46.5462463 10.6017864,46.523091 C11.2346879,46.2143536 11.9760304,46.0908586 12.4354261,45.4791727 C13.3936508,44.2249271 14.067957,42.8182424 14.1685114,41.2282448 C14.056127,41.0661577 13.9595159,41.2726258 13.8865647,41.3382325 C13.586873,42.2470782 12.7252595,42.7989463 12.1968558,43.6306076 Z M8.03074747,42.8992859 C8.09975542,43.096106 8.16482006,43.3315183 8.4073337,43.4357171 C8.57492443,43.5514936 8.58083939,43.3160814 8.74645846,43.2987149 C9.22359912,42.8606938 10.1128158,42.6600145 10.0280346,41.8457196 L9.69679647,41.2398225 C9.37935992,41.1529901 9.06192336,41.3922616 8.77997661,41.5485599 C8.2515729,41.8418604 8.12144363,42.3840804 8.03074747,42.8992859 Z M9.69813115,49.1878662 C10.2597794,48.4428647 10.7151855,47.6544073 11.1124452,46.8106026 C10.913308,46.5192317 10.609673,46.8511244 10.323783,46.8009546 C9.7679238,47.2615582 9.40612411,47.9846997 8.73938711,48.3064352 C8.9947482,48.554601 9.3167662,48.8527053 9.69813115,49.1878662 Z M11.8915183,50.9804041 C12.0423307,51.0956574 12.1967611,51.2121893 12.3546578,51.3297324 C12.4251857,51.3322281 12.4548504,51.2684484 12.4216245,51.1252076 C12.3190984,49.5853799 12.4216245,48.0783555 12.2836086,46.5655423 C12.0371517,46.2934675 11.7197151,46.6851781 11.5048047,46.8684909 C11.1814532,47.6036718 10.8778182,48.3581488 11.0118908,49.259276 C11.1796007,49.9826081 11.5643019,50.6110844 11.8915183,50.9804041 Z M42.3862756,50.4772182 C42.4232278,49.7465082 42.5583807,49.0287569 42.5583807,48.2944717 C42.5110609,47.6499824 42.6983682,47.0633814 42.6687934,46.4652027 C42.4479679,46.2259312 42.1127865,46.0156039 41.8249248,45.8496575 C41.0244326,45.8863201 41.542978,46.8318283 41.3379258,47.3065121 C41.2728612,47.8062807 41.2314564,48.3446415 41.308351,48.8540582 C41.0717523,49.3866302 41.3477841,50.1218111 41.1545619,50.6640311 C41.1545619,51.0318481 41.1987973,51.3346917 41.2705763,51.5738797 C41.6610226,51.2059151 42.0335317,50.8386048 42.3862756,50.4772182 Z M45.017197,47.4766453 C45.31073,47.0995081 45.5568322,46.7636125 45.7508277,46.4824365 C45.4373271,46.1873676 45.1062626,45.8761871 44.7883232,45.6509078 C44.6227041,45.5274129 44.703542,45.2611269 44.5221497,45.1646465 C44.0016326,45.1935906 43.9129081,44.7150477 43.4337958,44.6417225 C43.2366302,44.5452421 43.0926993,44.7092588 42.9625701,44.8481907 C42.8403274,45.2302532 43.0591812,45.5428498 43.3056381,45.7994877 C43.7240707,46.4731963 44.3679719,46.9940704 45.017197,47.4766453 Z M11.9837107,16.8160269 C12.4584121,17.1100538 13.0052681,17.1688592 13.5426301,17.2807791 C14.0401172,17.394596 14.6401398,17.2219738 15.0445854,17.6051572 C15.2192755,17.8631421 15.6749888,18.0756003 15.5344772,18.4739594 L15.4224477,18.559322 C14.3515213,18.0167949 12.8742505,18.5308678 11.9780142,17.5596305 C11.6210388,17.4704739 11.414069,17.0986721 11.3210275,16.7780879 C11.3039382,16.6642711 11.3438132,16.5333817 11.4102713,16.4745763 C11.6362292,16.4992366 11.7862349,16.7344581 11.9837107,16.8160269 Z M42.4390244,16.4981419 C42.3584195,16.7337979 42.1460945,16.9474594 41.9337695,17.1485525 C40.8721443,17.6874193 39.5549427,17.9607803 38.2554349,17.833526 C38.1846599,17.8146736 38.180728,17.7329795 38.2200474,17.6952745 C39.0437899,17.4706158 39.9422393,17.3920637 40.6912748,17.0260114 C41.2358492,16.7934974 41.7961514,16.5389889 42.4036369,16.4745763 L42.4390244,16.4981419 Z M18.4549995,26.2046715 C18.5988778,26.2635546 17.5817386,28.3458733 19.4741371,28.7295053 C21.0508027,29.0471169 21.6063326,27.5518443 21.8641144,27.6410611 C22.3217272,28.2316759 20.1875333,30.6744302 18.309123,29.2255504 C16.8883254,28.1299688 18.309123,26.1457885 18.4549995,26.2046715 Z M32.5368321,28.851039 C32.5125728,28.5726167 34.283505,29.7595747 34.95157,28.3363242 C35.5673841,27.0357992 34.3357558,26.5210844 34.4309271,26.290287 C35.0467413,25.8708219 36.9315057,27.0046599 35.6177689,28.9426253 C34.6473951,30.3750344 32.5834847,29.3620904 32.5368321,28.851039 Z M27,54 C41.9116882,54 54,41.9116882 54,27 C54,12.0883118 41.9116882,0 27,0 C12.0883118,0 0,12.0883118 0,27 C0,41.9116882 12.0883118,54 27,54 Z" fill="#272323" fill-rule="nonzero" mask="url(#mask-2)"></path>
        </g>
    </g>
</svg>