<?xml version="1.0" encoding="UTF-8"?>
<svg width="43px" height="40px" viewBox="0 0 43 40" version="1.1" xmlns="http://www.w3.org/2000/svg" xmlns:xlink="http://www.w3.org/1999/xlink">
    <!-- Generator: Sketch 46.2 (44496) - http://www.bohemiancoding.com/sketch -->
    <title>Group 5</title>
    <desc>Created with Sketch.</desc>
    <defs>
        <linearGradient x1="50%" y1="-1.11022302e-14%" x2="50%" y2="100%" id="linearGradient-1">
            <stop stop-color="#525151" offset="0%"></stop>
            <stop stop-color="#323232" offset="100%"></stop>
        </linearGradient>
    </defs>
    <g id="Modal" stroke="none" stroke-width="1" fill="none" fill-rule="evenodd">
        <g id="Group-6" transform="translate(-19.000000, -18.000000)" stroke="#000000" stroke-width="0.5" fill="url(#linearGradient-1)" fill-rule="nonzero">
            <g id="Group-5" transform="translate(20.000000, 18.000000)">
                <path d="M20,24.375 C20,30.2431875 24.7019,35 30.5,35 C36.2981,35 41,30.2431875 41,24.375 C41,18.507875 33.6626,4.88875 30.5,1 C27.26285,4.9641875 20,18.507875 20,24.375 Z" id="raindrop-copy-3"></path>
                <path d="M0,23.375 C0,29.2431875 4.7019,34 10.5,34 C16.2981,34 21,29.2431875 21,23.375 C21,17.507875 13.6626,3.88875 10.5,0 C7.26285,3.9641875 0,17.507875 0,23.375 Z" id="raindrop-copy"></path>
                <path d="M20.5,6 C17.26285,9.84759375 10,22.9929375 10,28.6875 C10,34.3830938 14.7019,39 20.5,39 C26.2981,39 31,34.3830938 31,28.6875 C31,22.9929375 23.6626,9.774375 20.5,6" id="raindrop"></path>
            </g>
        </g>
    </g>
</svg>